<svg width="725" height="368" viewBox="0 0 725 368" fill="none" xmlns="http://www.w3.org/2000/svg">
<g clip-path="url(#clip0_464_1906)">
<path fill-rule="evenodd" clip-rule="evenodd" d="M547.549 5.56946C547.016 4.85844 546.247 5.11699 546.726 2.04018C548.519 -2.99908 546.236 2.98649 546.448 2.13067C546.713 3.61737 547.691 2.89341 548.29 2.81326C548.106 3.48033 547.858 4.55593 547.549 5.56946Z" fill="#0F172A"/>
<path fill-rule="evenodd" clip-rule="evenodd" d="M661.361 313.915C665.505 307.49 668.886 300.424 672.203 294.12C673.967 296.659 679.023 324.441 686.008 368H670.896C666.319 336.024 662.916 316.196 661.361 313.915Z" fill="#0F172A"/>
<path fill-rule="evenodd" clip-rule="evenodd" d="M674.302 295.485C677.652 289.52 680.765 283.84 683.915 279.524C685.629 281.838 691.747 315.89 700.158 368H686.498C680.386 325.227 675.943 297.934 674.302 295.485Z" fill="#0F172A"/>
<path fill-rule="evenodd" clip-rule="evenodd" d="M685.423 277.792C688.246 274.041 690.941 270.478 693.603 267.091C696.755 284.091 699.947 300.866 703.01 317.538C706.126 334.468 709.2 351.313 712.193 367.964L711.993 367.997H699.712C695.136 338.37 690.275 308.199 685.423 277.79V277.792Z" fill="#0F172A"/>
<path fill-rule="evenodd" clip-rule="evenodd" d="M694.709 265.327C697.067 261.818 699.316 258.698 701.457 255.758C705.515 274.42 709.567 292.879 713.469 310.983C717.408 329.27 721.274 347.349 725 365.075V365.802C721.46 366.425 717.823 367.043 714.088 367.607C711.042 350.824 707.82 333.777 704.57 316.583C701.376 299.679 697.976 282.611 694.709 265.327Z" fill="#0F172A"/>
<path fill-rule="evenodd" clip-rule="evenodd" d="M702.521 254.455C704.539 251.644 706.128 248.808 707.533 245.796C712.472 265.862 717.469 285.753 722.093 305.331L725 317.641V357.306C721.7 341.821 718.275 326.111 714.813 310.238C710.822 291.917 706.694 273.247 702.519 254.458L702.521 254.455Z" fill="#0F172A"/>
<path fill-rule="evenodd" clip-rule="evenodd" d="M708.561 244.659C710.273 242.135 711.808 239.738 713.163 237.099C717.14 252.136 721.106 267.045 725 281.806V311.583L723.328 304.67C718.581 285.03 713.617 264.95 708.561 244.661V244.659Z" fill="#0F172A"/>
<path fill-rule="evenodd" clip-rule="evenodd" d="M713.921 235.999C715.276 233.915 716.201 231.467 717.121 229.031C719.777 238.308 722.402 247.531 725 256.692V277.526C721.332 263.833 717.608 249.982 713.921 236.002V235.999Z" fill="#0F172A"/>
<path fill-rule="evenodd" clip-rule="evenodd" d="M718.11 228.378C719.027 226.26 719.855 224.088 720.443 221.991L725 237.112V252.509C722.726 244.509 720.429 236.46 718.11 228.378Z" fill="#0F172A"/>
<path fill-rule="evenodd" clip-rule="evenodd" d="M720.816 220.329C721.552 218.286 722.135 216.331 722.642 214.581L725 222.092V234.172L720.816 220.329Z" fill="#0F172A"/>
<path fill-rule="evenodd" clip-rule="evenodd" d="M722.804 213.489C723.227 211.638 723.417 209.776 723.684 207.979L725 212.052V220.439L722.804 213.489Z" fill="#0F172A"/>
<path fill-rule="evenodd" clip-rule="evenodd" d="M723.793 207.3C723.98 205.529 723.854 203.541 723.659 201.653L725 205.684V211.018L723.793 207.3Z" fill="#0F172A"/>
<path fill-rule="evenodd" clip-rule="evenodd" d="M723.581 200.358C723.562 198.858 723.225 197.108 722.887 195.254L725 201.578V204.606L723.581 200.358Z" fill="#0F172A"/>
<path fill-rule="evenodd" clip-rule="evenodd" d="M722.854 194.781C722.536 193.201 722.001 191.681 721.385 189.956L724.997 200.8V201.159L722.851 194.781H722.854Z" fill="#0F172A"/>
<path fill-rule="evenodd" clip-rule="evenodd" d="M721.034 188.938C720.287 187.438 719.462 185.796 718.885 184.514C720.917 190.654 722.96 196.795 725 202.923V200.834C723.668 196.87 722.341 192.909 721.034 188.938Z" fill="#0F172A"/>
<path fill-rule="evenodd" clip-rule="evenodd" d="M718.25 183.536C717.374 182.112 716.209 180.509 715.05 178.996C718.372 189.134 721.703 199.267 725.003 209.371V203.942C722.745 197.142 720.485 190.329 718.252 183.536H718.25Z" fill="#0F172A"/>
<path fill-rule="evenodd" clip-rule="evenodd" d="M545.031 368C553.067 360.719 560.704 353.945 567.95 347.031C572.41 353.865 577.073 360.916 581.725 368H545.031Z" fill="#0F172A"/>
<path fill-rule="evenodd" clip-rule="evenodd" d="M572.087 343.539C580.382 335.41 588.077 328.672 595.318 322.448C603.499 332.961 611.08 343.166 619.079 354.478C615.503 358.563 611.852 363.15 608.031 368.003H588.487C582.98 359.608 577.517 351.492 572.087 343.539Z" fill="#0F172A"/>
<path fill-rule="evenodd" clip-rule="evenodd" d="M598.71 319.115C605.884 313.142 612.203 307.464 618.337 302.001C625.509 310.965 632.867 320.527 640.041 329.959C634.564 336.487 628.519 343.163 622.301 350.54C614.396 339.879 606.826 329.545 598.71 319.115Z" fill="#0F172A"/>
<path fill-rule="evenodd" clip-rule="evenodd" d="M621.309 299.488C626.967 294.867 632.39 290.177 637.469 285.82C643.826 293.673 650.421 301.3 657.102 309.437C652.45 314.792 647.706 320.444 642.65 326.801C635.529 317.646 628.33 308.201 621.306 299.488H621.309Z" fill="#0F172A"/>
<path fill-rule="evenodd" clip-rule="evenodd" d="M655.095 269.793C658.989 266.196 662.821 262.987 666.522 259.885C671.771 265.679 677.504 272.052 682.735 278.214C679.77 281.932 676.328 285.903 672.897 290.428C666.938 283.152 661.118 276.807 655.095 269.793Z" fill="#0F172A"/>
<path fill-rule="evenodd" clip-rule="evenodd" d="M668.675 258.82C671.983 255.8 675.33 253.059 678.24 249.998C682.934 255.161 687.856 260.482 692.43 265.646C689.935 269.134 687.154 272.629 684.249 276.355C679.174 270.553 673.764 264.5 668.675 258.82Z" fill="#0F172A"/>
<path fill-rule="evenodd" clip-rule="evenodd" d="M680.347 248.235C683.037 245.461 685.615 242.934 688.084 240.424C692.374 244.977 696.797 249.789 700.863 254.275C698.893 257.152 696.565 260.069 694.127 263.28C689.556 258.171 684.72 253.054 680.344 248.235H680.347Z" fill="#0F172A"/>
<path fill-rule="evenodd" clip-rule="evenodd" d="M689.637 239.024C691.986 236.873 694.077 234.634 696.309 232.558C700.024 236.459 703.943 240.457 707.664 244.358C706.098 247.169 704.266 249.93 702.583 252.901C698.268 248.381 693.767 243.59 689.637 239.024Z" fill="#0F172A"/>
<path fill-rule="evenodd" clip-rule="evenodd" d="M697.176 231.472C699.141 229.497 700.93 227.204 702.472 225.161C705.93 228.641 709.183 232.07 712.879 235.775C711.36 238.272 709.824 240.633 708.199 243.198C704.568 239.418 700.813 235.496 697.173 231.472H697.176Z" fill="#0F172A"/>
<path fill-rule="evenodd" clip-rule="evenodd" d="M703.464 223.553C705.136 221.735 706.572 220.01 708.071 218.231C711.279 221.476 714.445 224.814 717.216 227.658C716.293 229.905 715.039 232.015 714.022 234.43C710.574 230.805 706.998 227.074 703.461 223.553H703.464Z" fill="#0F172A"/>
<path fill-rule="evenodd" clip-rule="evenodd" d="M708.669 217.671C709.999 215.9 711.083 213.979 712.245 212.425C714.798 214.902 717.377 217.642 719.891 220.29C719.144 222.346 718.475 224.53 717.561 226.648C714.628 223.636 711.71 220.621 708.669 217.671Z" fill="#0F172A"/>
<path fill-rule="evenodd" clip-rule="evenodd" d="M712.739 211.372C713.891 209.885 714.576 208.169 715.256 206.573C717.472 208.732 719.783 210.992 721.948 213.197C721.525 215.085 720.864 216.944 720.446 219.17C717.937 216.639 715.2 213.79 712.737 211.372H712.739Z" fill="#0F172A"/>
<path fill-rule="evenodd" clip-rule="evenodd" d="M715.755 205.883C716.273 204.221 716.875 202.822 717.393 201.255C719.361 203.168 721.111 205.043 723.177 207.065C722.904 208.781 722.636 210.633 722.212 212.419C719.966 210.113 717.811 207.928 715.755 205.886V205.883Z" fill="#0F172A"/>
<path fill-rule="evenodd" clip-rule="evenodd" d="M717.637 200.135C717.926 198.602 718.294 197.244 718.353 195.623C720.153 197.441 721.725 199.031 723.222 200.51C723.417 202.423 723.37 204.099 723.261 205.973C721.511 204.194 719.451 202.038 717.637 200.137V200.135Z" fill="#0F172A"/>
<path fill-rule="evenodd" clip-rule="evenodd" d="M691.119 157.998C688.845 156.858 686.71 155.785 684.369 154.911C684.372 155.224 684.302 155.413 684.09 155.392C686.576 156.478 689.21 157.916 691.278 158.947C691.27 158.526 691.27 158.404 691.119 157.998Z" fill="#0F172A"/>
<path fill-rule="evenodd" clip-rule="evenodd" d="M718.632 190.118C718.325 188.66 718.102 187.261 717.74 186.033C718.66 186.881 719.892 188.122 720.9 189.188C721.441 190.837 721.976 192.451 722.525 194.121C721.043 192.655 719.947 191.481 718.634 190.118H718.632Z" fill="#0F172A"/>
<path fill-rule="evenodd" clip-rule="evenodd" d="M717.318 184.927C716.805 183.578 716.228 182.207 715.651 180.889C716.568 181.874 717.259 182.727 718.179 183.679C719.138 185.261 719.882 186.766 720.635 188.423C719.467 187.141 718.542 186.143 717.315 184.927H717.318Z" fill="#0F172A"/>
<path fill-rule="evenodd" clip-rule="evenodd" d="M706.448 168.966C705.122 167.676 703.731 166.489 702.273 165.424C702.644 165.905 703.017 166.409 703.316 166.815C704.927 168.152 706.465 169.393 707.939 170.67C707.418 170.135 707.117 169.734 706.448 168.966Z" fill="#0F172A"/>
<path fill-rule="evenodd" clip-rule="evenodd" d="M462.426 355.956C476.465 347.142 488.62 338.793 501.304 331.119C508.869 343.09 516.731 354.924 524.672 368.002H469.335C467.053 363.943 464.75 359.927 462.426 355.956Z" fill="#0F172A"/>
<path fill-rule="evenodd" clip-rule="evenodd" d="M506.99 327.719C518.147 320.384 528.582 313.359 538.24 306.921C546.339 318.165 554.361 329.369 562.349 341.265C552.973 349.36 543.376 358.374 532.409 367.126C524 353.342 515.259 340.476 506.99 327.719Z" fill="#0F172A"/>
<path fill-rule="evenodd" clip-rule="evenodd" d="M542.861 303.919C552.114 298.924 560.303 293.414 568.266 288.284C575.613 297.458 583.202 307.076 590.538 317.111C583.068 323.639 575.407 330.302 566.819 337.945C558.636 325.974 550.988 314.696 542.861 303.919Z" fill="#0F172A"/>
<path fill-rule="evenodd" clip-rule="evenodd" d="M571.892 285.557C579.563 280.949 586.556 276.28 593.292 272.357C600.034 280.21 607.209 289.112 614.057 298.192C607.785 303.33 601.102 308.343 593.889 314.099C586.829 304.511 579.289 294.984 571.892 285.557Z" fill="#0F172A"/>
<path fill-rule="evenodd" clip-rule="evenodd" d="M596.503 270.445C602.919 266.895 608.716 263.115 614.466 260.027C620.86 267.037 626.989 274.325 633.52 282.157C628.386 286.33 622.736 290.586 617.067 295.315C610.288 287.023 603.262 278.24 596.503 270.445Z" fill="#0F172A"/>
<path fill-rule="evenodd" clip-rule="evenodd" d="M672.972 150.914C674.463 150.771 675.812 150.621 677.016 150.404C679.486 152.672 681.752 154.787 684.171 156.938C682.964 157.093 681.827 157.46 680.545 157.74C678.053 155.547 675.648 153.267 672.972 150.914Z" fill="#0F172A"/>
<path fill-rule="evenodd" clip-rule="evenodd" d="M634.573 247.378C639.113 244.847 643.224 242.166 647.449 239.704C652.684 245.506 658.074 251.337 663.364 257.265C659.593 260.096 655.683 263.23 651.474 266.379C645.903 259.988 640.314 253.736 634.573 247.378Z" fill="#0F172A"/>
<path fill-rule="evenodd" clip-rule="evenodd" d="M649.808 238.916C653.573 236.452 657.372 234.233 660.984 231.966C665.48 236.798 670.182 241.853 674.694 246.957C671.623 249.814 668.359 252.521 664.964 255.466C659.978 250.091 654.9 244.493 649.808 238.916Z" fill="#0F172A"/>
<path fill-rule="evenodd" clip-rule="evenodd" d="M663.233 230.624C666.625 228.703 669.356 226.457 672.372 224.626C676.656 229.083 680.979 233.494 685.031 237.892C682.562 240.302 679.822 242.655 676.884 245.295C672.216 239.989 667.659 235.216 663.236 230.624H663.233Z" fill="#0F172A"/>
<path fill-rule="evenodd" clip-rule="evenodd" d="M674.078 223.403C676.904 221.557 679.471 219.685 682.169 218.239C685.912 222.019 689.845 225.955 693.822 230.378C691.671 232.462 689.416 234.497 686.899 236.866C682.766 232.501 678.362 227.759 674.078 223.403Z" fill="#0F172A"/>
<path fill-rule="evenodd" clip-rule="evenodd" d="M683.123 217.446C685.486 215.695 687.755 214.222 689.701 212.525C693.129 215.987 696.666 219.576 700.08 222.948C698.299 224.908 696.504 227.074 694.375 229.197C690.643 225.125 686.869 221.285 683.123 217.443V217.446Z" fill="#0F172A"/>
<path fill-rule="evenodd" clip-rule="evenodd" d="M691.091 211.364C693.167 210.102 694.842 208.419 696.509 206.974C699.778 210.149 703.078 213.489 706.328 216.889C704.586 218.363 703.232 220.331 701.629 222.122C698.212 218.588 694.516 214.854 691.091 211.366V211.364Z" fill="#0F172A"/>
<path fill-rule="evenodd" clip-rule="evenodd" d="M697.424 206.519C699.232 205.291 700.414 203.654 701.897 202.25C704.695 204.965 707.591 207.855 710.272 210.612C708.951 212.153 707.784 213.875 706.451 215.654C703.444 212.6 700.459 209.539 697.424 206.519Z" fill="#0F172A"/>
<path fill-rule="evenodd" clip-rule="evenodd" d="M710.111 192.947C710.716 191.603 711.251 190.408 711.711 189.175C713.631 191.067 715.328 192.743 717.109 194.517C716.82 195.954 716.371 197.278 716.234 198.961C714.055 196.864 712.109 194.889 710.108 192.95L710.111 192.947Z" fill="#0F172A"/>
<path fill-rule="evenodd" clip-rule="evenodd" d="M712.207 188.74C712.361 187.303 712.823 186.318 712.907 185.115C714.359 186.527 715.895 188.052 717.358 189.539C717.433 190.909 717.291 192.342 717.143 193.707C715.516 192.045 713.896 190.354 712.207 188.74Z" fill="#0F172A"/>
<path fill-rule="evenodd" clip-rule="evenodd" d="M712.681 180.395C712.561 179.5 712.21 178.182 711.948 177.191C712.929 178.202 713.994 179.343 714.902 180.273C715.624 181.672 716.129 183.001 716.566 184.346C715.273 183.118 714.047 181.768 712.684 180.398L712.681 180.395Z" fill="#0F172A"/>
<path fill-rule="evenodd" clip-rule="evenodd" d="M710.206 173.636C709.665 172.767 708.829 171.464 707.703 170.169C708.302 170.901 709.052 171.689 709.359 172.253C710.708 173.76 711.694 174.96 712.762 176.317C712.004 175.477 711.028 174.5 710.203 173.636H710.206Z" fill="#0F172A"/>
<path fill-rule="evenodd" clip-rule="evenodd" d="M702.602 164.656C701.573 163.598 700.484 162.66 699.472 161.819C700.13 162.613 700.718 163.366 701.373 164.017C702.613 165.09 703.859 166.251 704.957 167.179C704.071 166.256 703.41 165.558 702.599 164.656H702.602Z" fill="#0F172A"/>
<path fill-rule="evenodd" clip-rule="evenodd" d="M705.281 170.01C705.108 169.204 704.718 168.335 704.545 167.521C705.582 168.661 706.694 169.806 707.734 170.838C708.124 171.782 708.67 172.813 709.074 173.832C707.879 172.645 706.541 171.376 705.281 170.01Z" fill="#0F172A"/>
<path fill-rule="evenodd" clip-rule="evenodd" d="M230.357 232.048C253.245 227.555 274.277 223.126 294.086 218.911C301.72 230.394 309.513 241.359 316.81 253.126C297.595 258.113 276.396 264.541 252.922 271.088C245.285 257.537 237.882 244.718 230.354 232.048H230.357Z" fill="#0F172A"/>
<path fill-rule="evenodd" clip-rule="evenodd" d="M362.354 219.082C378.333 215.778 392.392 212.52 406.383 210.056C413.245 218.722 420.718 227.7 428.168 237.111C414.516 240.979 400.188 245.131 384.788 249.726C377.614 239.404 369.805 228.804 362.354 219.079V219.082Z" fill="#0F172A"/>
<path fill-rule="evenodd" clip-rule="evenodd" d="M381.155 151.628C393.881 151.152 405.788 150.433 417.276 149.864C423.74 156.447 430.067 162.867 436.148 169.538C425.005 170.482 413.171 171.681 400.581 173.398C394.299 165.879 388.028 158.598 381.155 151.628Z" fill="#0F172A"/>
<path fill-rule="evenodd" clip-rule="evenodd" d="M313.538 368C329.851 359.931 345.117 352.298 359.493 344.942C363.601 352.474 367.718 360.156 371.787 368H313.541H313.538Z" fill="#0F172A"/>
<path fill-rule="evenodd" clip-rule="evenodd" d="M369.259 340.219C387.989 330.929 404.491 321.972 420.638 313.957C429.108 327.624 437.784 342.323 446.419 356.994C441.134 360.639 435.755 364.295 430.239 368H383.797C378.877 358.506 374.042 349.278 369.259 340.219Z" fill="#0F172A"/>
<path fill-rule="evenodd" clip-rule="evenodd" d="M428.108 310.36C442.726 303.669 456.222 297.453 468.619 291.292C476.607 302.604 485.117 314.746 492.801 327.273C480.724 335.076 467.733 343.083 453.449 351.709C445.196 337.261 436.581 323.839 428.108 310.36Z" fill="#0F172A"/>
<path fill-rule="evenodd" clip-rule="evenodd" d="M475.406 289.575C487.483 283.814 498.489 278.778 508.924 273.966C516.118 283.501 523.707 293.368 531.336 303.402C521.316 309.768 510.346 316.785 498.793 324.167C490.866 311.715 483.221 300.7 475.406 289.572V289.575Z" fill="#0F172A"/>
<path fill-rule="evenodd" clip-rule="evenodd" d="M515.36 270.457C525.004 266.31 534.109 262.266 542.733 258.243C549.615 266.468 556.527 275.148 563.447 284.065C555.284 289.337 546.741 294.374 537.415 299.403C530.188 289.867 522.715 280.109 515.36 270.46V270.457Z" fill="#0F172A"/>
<path fill-rule="evenodd" clip-rule="evenodd" d="M547.719 255.888C555.556 251.756 563.059 248.707 570.504 245.688C576.981 253.377 583.629 261.234 590.46 269.175C583.42 272.859 576.059 277.136 568.639 281.885C561.766 273.097 554.586 264.288 547.719 255.888Z" fill="#0F172A"/>
<path fill-rule="evenodd" clip-rule="evenodd" d="M573.762 244.842C580.376 241.856 586.907 239.048 593.264 236.563C598.894 243.188 604.85 249.789 610.729 256.392C604.956 259.725 598.844 263.314 592.645 267.161C586.268 259.601 579.83 252.035 573.765 244.842H573.762Z" fill="#0F172A"/>
<path fill-rule="evenodd" clip-rule="evenodd" d="M615.779 226.673C621.033 224.894 625.62 222.901 630.177 220.938C635.08 226.089 640.178 231.498 644.874 236.594C640.735 239.084 636.71 241.765 631.772 244.126C626.593 238.316 621.242 232.447 615.779 226.671V226.673Z" fill="#0F172A"/>
<path fill-rule="evenodd" clip-rule="evenodd" d="M632.6 220.019C637.026 218.064 641.023 216.117 644.956 214.677C649.521 219.297 653.746 223.796 658.471 228.791C654.87 230.976 651.163 233.086 647.33 235.503C642.311 230.257 637.595 225.094 632.6 220.019Z" fill="#0F172A"/>
<path fill-rule="evenodd" clip-rule="evenodd" d="M646.915 213.958C650.502 212.383 653.757 210.749 657.135 209.384C661.425 213.665 665.686 217.867 669.502 222.107C666.718 224.021 663.443 225.854 660.215 227.821C655.633 223.092 651.249 218.511 646.917 213.958H646.915Z" fill="#0F172A"/>
<path fill-rule="evenodd" clip-rule="evenodd" d="M659.596 208.786C662.868 207.416 665.803 206.125 668.646 204.646C672.046 208.072 676.082 212.098 679.535 215.782C677.071 217.445 674.273 219.1 671.444 220.974C667.62 216.835 663.512 212.757 659.596 208.786Z" fill="#0F172A"/>
<path fill-rule="evenodd" clip-rule="evenodd" d="M670.218 203.9C672.949 202.768 675.672 201.648 678.069 200.508C681.403 203.807 684.608 207.07 687.922 210.294C685.823 211.773 683.401 213.138 681.116 214.964C677.506 211.163 674.003 207.533 670.218 203.903V203.9Z" fill="#0F172A"/>
<path fill-rule="evenodd" clip-rule="evenodd" d="M678.77 199.876C681.153 198.819 683.215 197.637 685.492 196.681C688.377 199.437 691.432 202.47 694.509 205.448C692.608 206.777 690.771 208.277 688.695 209.805C685.462 206.488 682.103 203.243 678.77 199.876Z" fill="#0F172A"/>
<path fill-rule="evenodd" clip-rule="evenodd" d="M686.476 195.75C688.288 194.501 690.085 193.327 691.878 192.445C694.832 195.336 697.505 197.963 700.197 200.642C698.79 202.053 697.221 203.364 695.565 204.76C692.488 201.678 689.436 198.741 686.476 195.747V195.75Z" fill="#0F172A"/>
<path fill-rule="evenodd" clip-rule="evenodd" d="M692.92 191.815C694.55 190.988 696.097 190.119 697.415 189.033C699.918 191.502 702.204 193.736 704.891 196.41C703.731 197.612 702.563 198.786 701.239 199.999C698.55 197.392 695.88 194.827 692.92 191.815Z" fill="#0F172A"/>
<path fill-rule="evenodd" clip-rule="evenodd" d="M443.314 182.734C453.966 181.369 464.117 180.203 473.97 178.766C480.116 185.641 486.306 192.27 492.822 199.171C483.432 201.017 473.437 202.76 462.79 205.211C456.252 197.521 449.696 190.119 443.311 182.734H443.314Z" fill="#0F172A"/>
<path fill-rule="evenodd" clip-rule="evenodd" d="M640.997 147.339C643.896 147.359 646.644 147.364 649.242 147.406C652.285 150.25 655.424 153.024 658.358 155.786C655.822 155.744 653.623 156.14 650.847 156.233C647.642 153.247 644.384 150.268 640.994 147.336L640.997 147.339Z" fill="#0F172A"/>
<path fill-rule="evenodd" clip-rule="evenodd" d="M641.455 138.503C644.083 138.8 646.575 139.025 648.989 139.209C651.943 141.794 654.766 144.279 657.531 146.72C655.31 146.733 653.016 146.707 650.65 146.619C647.684 143.987 644.532 141.21 641.455 138.503Z" fill="#0F172A"/>
<path fill-rule="evenodd" clip-rule="evenodd" d="M136.633 368C144.4 364.947 151.99 361.94 159.393 358.969C160.636 361.934 161.856 364.947 163.061 368H136.63H136.633Z" fill="#0F172A"/>
<path fill-rule="evenodd" clip-rule="evenodd" d="M449.03 117.853C458.217 118.3 466.941 118.693 475.249 119.06C480.372 123.797 485.442 128.601 490.671 133.187C482.36 133.234 474.043 133.125 465.096 133.012C459.906 127.882 454.413 122.866 449.033 117.853H449.03Z" fill="#0F172A"/>
<path fill-rule="evenodd" clip-rule="evenodd" d="M270.648 315.34C294.027 306.43 315.466 298.552 335.868 291.269C343.817 304.962 352.326 319.676 360.086 335.44C340.057 345.198 319.078 355.106 295.624 365.707C287.695 348.577 279.13 331.606 270.651 315.34H270.648Z" fill="#0F172A"/>
<path fill-rule="evenodd" clip-rule="evenodd" d="M403.014 266.794C417.806 261.669 431.887 257.111 444.942 252.625C452.545 262.763 460.294 273.511 467.83 284.378C455.352 290.33 441.608 296.375 427.564 302.49C419.381 290.519 411.214 278.196 403.017 266.796L403.014 266.794Z" fill="#0F172A"/>
<path fill-rule="evenodd" clip-rule="evenodd" d="M492.778 238.048C502.999 234.824 512.324 231.879 521.204 228.846C527.643 236.235 534.379 244.263 540.843 252.516C532.386 256.322 523.13 260.361 513.785 264.534C507.029 255.366 499.751 246.381 492.775 238.048H492.778Z" fill="#0F172A"/>
<path fill-rule="evenodd" clip-rule="evenodd" d="M526.278 227.379C534.742 224.731 542.672 222.391 550.273 220.253C556.639 227.257 562.818 234.367 569.184 241.439C561.954 244.317 554.587 247.207 546.619 250.804C539.715 242.546 533.101 234.592 526.278 227.379Z" fill="#0F172A"/>
<path fill-rule="evenodd" clip-rule="evenodd" d="M553.547 219.475C560.593 217.358 567.429 215.274 574.138 213.156C579.726 219.331 585.318 225.399 591.031 231.695C584.852 234.273 578.327 237.166 571.688 239.953C565.473 232.969 559.335 226.069 553.549 219.473L553.547 219.475Z" fill="#0F172A"/>
<path fill-rule="evenodd" clip-rule="evenodd" d="M578.57 211.902C584.582 210.213 590.471 208.59 595.851 206.974C601.47 212.809 606.804 218.239 612.066 224.075C607.022 225.928 601.592 228.03 595.647 230.678C590.039 224.036 584.131 217.812 578.57 211.902Z" fill="#0F172A"/>
<path fill-rule="evenodd" clip-rule="evenodd" d="M598.487 206.452C603.953 205.048 608.85 203.44 613.772 202.121C618.594 206.974 623.511 212.192 628.093 217.247C623.647 219.059 619.076 221.073 613.769 222.751C608.842 217.505 603.61 211.825 598.49 206.452H598.487Z" fill="#0F172A"/>
<path fill-rule="evenodd" clip-rule="evenodd" d="M616.393 201.335C621.103 200.153 625.537 199.129 629.724 197.989C634.141 202.48 638.687 206.899 642.882 211.297C639.049 212.655 634.849 214.255 630.68 216.176C626.017 211.085 621.217 206.242 616.393 201.335Z" fill="#0F172A"/>
<path fill-rule="evenodd" clip-rule="evenodd" d="M631.652 197.425C635.643 196.401 639.461 195.315 643.115 194.126C647.199 198.224 651.321 202.309 655.17 206.294C651.954 207.731 648.403 209.158 644.757 210.495C640.395 206.193 636.083 201.769 631.649 197.425H631.652Z" fill="#0F172A"/>
<path fill-rule="evenodd" clip-rule="evenodd" d="M645.622 193.715C649.156 192.717 652.294 191.593 655.327 190.703C659.081 194.212 662.777 197.808 666.431 201.296C663.741 202.85 660.658 204.254 657.322 205.511C653.389 201.493 649.565 197.619 645.619 193.715H645.622Z" fill="#0F172A"/>
<path fill-rule="evenodd" clip-rule="evenodd" d="M657.556 190.532C660.494 189.589 663.415 188.795 666.247 188.068C669.343 191.088 672.76 194.387 675.901 197.596C673.357 198.573 670.873 199.685 668.147 200.771C664.719 197.418 661.163 194.046 657.556 190.53V190.532Z" fill="#0F172A"/>
<path fill-rule="evenodd" clip-rule="evenodd" d="M667.018 187.518C669.463 186.587 671.887 185.726 674.379 184.961C677.339 187.818 680.536 191.014 683.457 193.899C681.255 194.931 679.12 196.03 676.821 197.09C673.604 193.915 670.257 190.791 667.015 187.521L667.018 187.518Z" fill="#0F172A"/>
<path fill-rule="evenodd" clip-rule="evenodd" d="M675.513 184.317C677.762 183.536 679.78 182.846 681.865 182.254C684.755 184.92 687.587 187.526 690.363 190.303C688.501 191.138 686.704 192.149 684.822 193.255C681.748 190.318 678.696 187.278 675.516 184.317H675.513Z" fill="#0F172A"/>
<path fill-rule="evenodd" clip-rule="evenodd" d="M511.773 175.149C519.756 174.389 527.44 173.812 534.809 173.06C540.258 178.528 545.816 184.128 551.359 189.651C544.249 190.763 537.15 192.094 529.179 193.599C523.365 187.329 517.612 181.093 511.773 175.149Z" fill="#0F172A"/>
<path fill-rule="evenodd" clip-rule="evenodd" d="M538.156 172.563C545.104 171.749 551.894 171.198 557.992 170.44C563.332 175.549 568.614 180.775 573.572 185.892C567.535 186.983 561.306 188.084 554.578 189.087C549.237 183.728 543.607 178.014 538.156 172.563Z" fill="#0F172A"/>
<path fill-rule="evenodd" clip-rule="evenodd" d="M561.019 170.127C567.357 169.559 573.04 169.054 578.553 168.561C583.328 173.08 588.336 177.925 593.103 182.567C587.801 183.497 582.319 184.438 576.547 185.579C571.524 180.299 566.226 175.086 561.019 170.127Z" fill="#0F172A"/>
<path fill-rule="evenodd" clip-rule="evenodd" d="M581.153 168.281C586.549 167.801 591.672 167.508 596.564 167.087C601.043 171.301 605.806 175.963 610.129 180.11C605.472 180.842 600.588 181.385 595.585 182.119C591.017 177.675 585.925 172.829 581.151 168.281H581.153Z" fill="#0F172A"/>
<path fill-rule="evenodd" clip-rule="evenodd" d="M598.958 166.924C603.68 166.435 608.092 165.838 612.521 165.675C616.682 169.535 620.944 173.553 625.149 177.705C621.18 178.344 616.955 179.076 612.398 179.864C608.014 175.5 603.365 171.13 598.958 166.924Z" fill="#0F172A"/>
<path fill-rule="evenodd" clip-rule="evenodd" d="M614.573 165.608C618.698 165.241 622.502 164.902 626.362 164.664C630.423 168.323 634.504 172.087 638.032 175.583C634.649 176.214 631.025 176.865 627.023 177.333C622.951 173.282 618.898 169.455 614.575 165.608H614.573Z" fill="#0F172A"/>
<path fill-rule="evenodd" clip-rule="evenodd" d="M628.099 164.542C631.797 164.19 635.401 163.965 638.629 163.64C642.361 167.027 646.034 170.52 649.666 173.894C646.625 174.558 643.138 174.897 639.864 175.347C636.034 171.813 632.241 168.201 628.099 164.545V164.542Z" fill="#0F172A"/>
<path fill-rule="evenodd" clip-rule="evenodd" d="M640.487 163.694C643.767 163.423 646.822 163.151 649.718 162.9C652.89 165.962 656.232 169.041 659.599 172.04C656.831 172.475 653.896 173.134 651.101 173.716C647.614 170.336 644.144 167.128 640.487 163.694Z" fill="#0F172A"/>
<path fill-rule="evenodd" clip-rule="evenodd" d="M651.494 162.722C654.298 162.539 656.804 162.234 659.371 162.117C662.428 164.824 665.5 167.64 668.585 170.497C666.216 170.905 663.986 171.399 661.461 171.787C658.167 168.78 654.747 165.706 651.494 162.72V162.722Z" fill="#0F172A"/>
<path fill-rule="evenodd" clip-rule="evenodd" d="M660.842 161.874C663.256 161.602 665.374 161.359 667.626 161.176C670.55 163.836 673.49 166.414 676.372 169.183C674.393 169.631 672.264 169.956 670.054 170.479C667.038 167.601 663.894 164.702 660.839 161.874H660.842Z" fill="#0F172A"/>
<path fill-rule="evenodd" clip-rule="evenodd" d="M668.573 161.126C670.608 160.814 672.347 160.413 674.153 160.095C676.795 162.559 679.521 165.056 681.977 167.37C680.382 167.813 678.565 168.239 676.887 168.762C674.15 166.21 671.282 163.619 668.573 161.126Z" fill="#0F172A"/>
<path fill-rule="evenodd" clip-rule="evenodd" d="M675.305 159.878C676.888 159.586 678.61 159.498 680.043 159.139C682.546 161.44 685.065 163.72 687.376 165.918C686.086 166.324 684.789 166.766 683.273 167.146C680.748 164.84 678.017 162.451 675.302 159.878H675.305Z" fill="#0F172A"/>
<path fill-rule="evenodd" clip-rule="evenodd" d="M693.304 161.264C693.792 160.876 694.202 160.274 694.55 159.845C696.214 161.487 697.878 162.932 699.266 164.385C699.291 165.099 699.023 165.729 698.686 166.34C696.863 164.656 695.188 163.048 693.307 161.264H693.304Z" fill="#0F172A"/>
<path fill-rule="evenodd" clip-rule="evenodd" d="M660.854 147.86C656.873 147.074 652.963 146.285 648.473 145.458C647.417 144.956 646.422 144.726 645.151 144.284C649.917 145.37 654.253 146.231 658.445 147.154C659.426 147.772 660.081 147.488 660.854 147.86Z" fill="#0F172A"/>
<path fill-rule="evenodd" clip-rule="evenodd" d="M633.756 143.716C628.12 143.261 622.418 143.274 616.211 143.01C615.046 142.909 613.73 142.819 612.37 142.434C618.853 143.01 624.792 142.881 630.523 143.201C631.872 143.669 632.9 143.501 633.756 143.719V143.716Z" fill="#0F172A"/>
<path fill-rule="evenodd" clip-rule="evenodd" d="M520.789 154.639C527.977 154.213 535.11 153.975 541.551 153.587C546.713 158.404 551.813 163.303 556.791 168.291C550.422 168.888 543.636 169.465 536.877 170.197C531.548 164.829 526.035 159.503 520.792 154.637L520.789 154.639Z" fill="#0F172A"/>
<path fill-rule="evenodd" clip-rule="evenodd" d="M544.684 153.419C551.117 153.323 557.223 153.202 562.957 152.972C567.608 157.424 572.726 162.086 577.232 166.53C571.809 167.027 565.916 167.412 559.832 167.875C554.904 163.022 549.712 158.117 544.684 153.422V153.419Z" fill="#0F172A"/>
<path fill-rule="evenodd" clip-rule="evenodd" d="M565.719 152.952C571.399 152.822 576.736 152.83 582.001 152.714C586.472 156.683 590.931 160.905 595.263 165.254C590.318 165.505 585.204 165.838 579.872 166.42C575.435 161.996 570.387 157.314 565.716 152.949L565.719 152.952Z" fill="#0F172A"/>
<path fill-rule="evenodd" clip-rule="evenodd" d="M584.454 152.571C589.468 152.475 594.143 152.558 598.68 152.421C602.97 156.255 607.142 160.077 611.197 163.87C606.925 164.046 602.454 164.547 597.666 165.031C593.301 160.878 588.844 156.589 584.454 152.571Z" fill="#0F172A"/>
<path fill-rule="evenodd" clip-rule="evenodd" d="M600.867 152.326C605.363 152.406 609.276 152.21 613.376 152.246C617.417 155.884 621.347 159.384 625.154 162.947C621.372 163.265 617.425 163.565 613.245 163.808C609.192 159.948 605.07 156.297 600.867 152.326Z" fill="#0F172A"/>
<path fill-rule="evenodd" clip-rule="evenodd" d="M615.253 152.116C619.266 152.075 622.903 152.062 626.535 151.94C630.259 155.291 633.86 158.603 637.478 161.983C634.233 162.567 630.713 162.714 627.028 162.952C623.076 159.294 619.366 155.759 615.25 152.116H615.253Z" fill="#0F172A"/>
<path fill-rule="evenodd" clip-rule="evenodd" d="M628.23 151.979C631.619 151.979 635.064 152.122 638.002 152.047C641.402 155.012 644.886 158.187 648.328 161.228C645.371 161.391 642.327 161.621 639.114 161.975C635.638 158.617 631.884 155.325 628.23 151.979Z" fill="#0F172A"/>
<path fill-rule="evenodd" clip-rule="evenodd" d="M502.778 136.773C510.34 136.848 517.636 136.949 524.454 137.107C529.429 141.756 534.39 146.226 539.29 150.836C532.584 151.046 525.53 151.359 518.448 151.643C513.138 146.643 507.812 141.572 502.778 136.776V136.773Z" fill="#0F172A"/>
<path fill-rule="evenodd" clip-rule="evenodd" d="M527.637 137.316C534.293 137.337 540.734 137.609 546.727 137.792C551.437 142.061 556.181 146.33 560.749 150.57C554.921 150.516 548.675 150.604 542.382 150.875C537.571 146.159 532.654 141.74 527.637 137.316Z" fill="#0F172A"/>
<path fill-rule="evenodd" clip-rule="evenodd" d="M549.756 137.839C555.657 137.947 561.371 138.165 566.767 138.39C571.067 142.245 575.446 146.221 579.83 150.402C574.66 150.436 569.239 150.531 563.648 150.612C559.091 146.309 554.347 141.96 549.759 137.839H549.756Z" fill="#0F172A"/>
<path fill-rule="evenodd" clip-rule="evenodd" d="M569.244 138.415C574.612 138.699 579.248 138.787 584.145 139.046C588.493 142.813 592.439 146.43 596.617 150.195C591.951 150.216 587.205 150.169 582.121 150.262C578.013 146.26 573.626 142.283 569.244 138.415Z" fill="#0F172A"/>
<path fill-rule="evenodd" clip-rule="evenodd" d="M586.656 139.242C591.115 139.322 595.483 139.439 599.828 139.677C603.853 143.294 607.705 146.727 611.439 150.107C607.546 150.29 603.357 150.316 598.797 150.223C594.764 146.443 590.728 142.901 586.656 139.242Z" fill="#0F172A"/>
<path fill-rule="evenodd" clip-rule="evenodd" d="M601.963 139.739C606.213 140.011 609.951 140.161 613.538 140.295C617.337 143.558 621.222 146.85 624.703 150.04C621.152 150.094 617.44 150.203 613.368 150.107C609.63 146.741 605.845 143.315 601.963 139.739Z" fill="#0F172A"/>
<path fill-rule="evenodd" clip-rule="evenodd" d="M615.774 140.688C619.553 140.981 622.898 141.144 626.307 141.332C629.782 144.399 633.417 147.561 636.775 150.726C633.567 150.496 630.192 150.454 626.669 150.32C623.177 147.258 619.704 144.2 615.774 140.691V140.688Z" fill="#0F172A"/>
<path fill-rule="evenodd" clip-rule="evenodd" d="M511.611 122.405C518.532 122.772 525.082 123.023 531.414 123.504C536.108 127.677 540.64 131.716 545.222 136.065C538.973 135.672 532.724 135.63 525.951 135.447C521.35 131.09 516.544 126.741 511.614 122.405H511.611Z" fill="#0F172A"/>
<path fill-rule="evenodd" clip-rule="evenodd" d="M534.583 123.921C540.781 124.185 546.478 124.681 552.226 125.245C556.593 128.991 560.824 132.81 565.155 136.699C559.573 136.264 554.138 136.251 548.101 136.076C543.552 131.928 538.981 127.709 534.583 123.921Z" fill="#0F172A"/>
<path fill-rule="evenodd" clip-rule="evenodd" d="M554.879 125.454C560.336 125.847 565.395 126.349 570.518 126.866C574.665 130.367 578.67 134.012 582.843 137.668C577.904 137.2 573.054 137.105 567.63 136.732C563.564 133.069 559.241 129.288 554.879 125.454Z" fill="#0F172A"/>
<path fill-rule="evenodd" clip-rule="evenodd" d="M573.013 127.033C577.841 127.434 582.386 127.677 586.899 128.078C590.795 131.47 594.578 134.823 598.443 138.262C594.101 138.053 589.817 137.874 585.009 137.673C580.901 134.063 577.094 130.555 573.013 127.033Z" fill="#0F172A"/>
<path fill-rule="evenodd" clip-rule="evenodd" d="M589.142 128.332C593.217 128.583 597.275 128.942 601.45 129.493C605.115 132.614 608.786 135.866 612.351 138.979C608.554 138.809 604.619 138.457 600.572 138.361C596.628 134.92 592.835 131.657 589.142 128.332Z" fill="#0F172A"/>
<path fill-rule="evenodd" clip-rule="evenodd" d="M613.922 131.92C617.507 132.334 620.941 132.714 624.093 132.972C627.332 135.747 630.788 138.686 634.121 141.605C630.952 141.342 627.688 141.272 624.433 141.083C621.124 138.055 617.549 134.997 613.922 131.923V131.92Z" fill="#0F172A"/>
<path fill-rule="evenodd" clip-rule="evenodd" d="M626.027 133.128C629.099 133.379 632.028 133.562 634.871 133.896C637.848 136.569 640.849 139.067 643.712 141.678C641.198 141.645 638.327 141.453 635.587 141.373C632.527 138.713 629.207 135.814 626.027 133.128Z" fill="#0F172A"/>
<path fill-rule="evenodd" clip-rule="evenodd" d="M519.098 110.571C525.324 111.256 531.328 111.916 537.379 112.588C541.666 116.306 545.849 119.91 550.253 123.69C544.316 122.972 538.745 122.659 532.393 122.02C528.053 118.106 523.543 114.419 519.098 110.571Z" fill="#0F172A"/>
<path fill-rule="evenodd" clip-rule="evenodd" d="M540.16 112.86C545.703 113.424 551.272 114.155 556.565 114.773C560.492 118.228 564.584 121.716 568.684 125.291C563.499 124.756 558.494 124.381 552.9 123.947C548.504 120.107 544.307 116.537 540.16 112.857V112.86Z" fill="#0F172A"/>
<path fill-rule="evenodd" clip-rule="evenodd" d="M559.099 115.05C564.021 115.572 568.848 116.19 573.798 116.883C577.569 120.182 581.173 123.202 585.111 126.581C580.604 126.181 576.003 125.842 571.162 125.542C567.14 121.945 562.981 118.375 559.099 115.05Z" fill="#0F172A"/>
<path fill-rule="evenodd" clip-rule="evenodd" d="M575.952 117.195C580.323 117.818 584.69 118.356 588.837 118.879C592.441 121.96 596.209 125.053 599.791 128.088C595.677 127.695 591.627 127.282 587.357 126.832C583.408 123.499 579.67 120.345 575.952 117.195Z" fill="#0F172A"/>
<path fill-rule="evenodd" clip-rule="evenodd" d="M602.205 121.531C605.965 122.095 609.446 122.483 612.716 122.876C616.094 125.759 619.503 128.598 622.705 131.501C619.489 131.188 616.197 130.878 612.546 130.444C609.148 127.499 605.765 124.608 602.205 121.534V121.531Z" fill="#0F172A"/>
<path fill-rule="evenodd" clip-rule="evenodd" d="M615.141 123.742C618.468 124.156 621.434 124.59 624.458 125.112C627.602 127.724 630.687 130.309 633.99 133.091C631.153 132.745 628.084 132.528 625.016 132.29C621.802 129.425 618.535 126.589 615.138 123.739L615.141 123.742Z" fill="#0F172A"/>
<path fill-rule="evenodd" clip-rule="evenodd" d="M505.738 96.8346C512.302 97.7939 518.501 98.6497 524.46 99.6089C528.741 102.929 532.802 106.342 537.194 110.08C531.188 109.225 525.123 108.614 518.927 107.867C514.51 104.061 510.148 100.449 505.741 96.832L505.738 96.8346Z" fill="#0F172A"/>
<path fill-rule="evenodd" clip-rule="evenodd" d="M527.289 99.8857C533.156 100.827 538.758 101.561 544.255 102.448C548.062 105.739 552.05 108.915 556.092 112.364C550.76 111.645 545.255 111.014 539.689 110.225C535.612 106.771 531.537 103.405 527.289 99.8857Z" fill="#0F172A"/>
<path fill-rule="evenodd" clip-rule="evenodd" d="M512.093 87.6533C518.06 88.6332 523.78 89.7088 529.371 90.681C533.393 93.9983 537.325 97.1811 541.264 100.374C535.988 99.5314 530.26 98.7169 524.251 97.7654C520.282 94.474 516.14 91.0714 512.09 87.6533H512.093Z" fill="#0F172A"/>
<path fill-rule="evenodd" clip-rule="evenodd" d="M447.186 91.1357C455.77 92.2398 463.764 93.2662 471.367 94.0031C476.426 98.065 481.058 102.233 485.54 106.142C478.16 105.566 470.3 104.738 461.966 103.903C457.225 99.6862 452.295 95.4123 447.189 91.1383L447.186 91.1357Z" fill="#0F172A"/>
<path fill-rule="evenodd" clip-rule="evenodd" d="M678.845 169.949C680.667 169.481 682.337 168.985 683.931 168.584C686.406 170.864 688.965 173.191 691.39 175.751C690.158 176.348 688.706 177.067 687.173 177.719C684.525 175.229 681.676 172.506 678.845 169.949Z" fill="#0F172A"/>
<path fill-rule="evenodd" clip-rule="evenodd" d="M672.016 171.557C674.154 171.089 676.135 170.579 678.039 170.119C680.946 172.86 683.722 175.495 686.367 177.997C684.829 178.783 683.134 179.518 681.283 180.27C678.273 177.359 675.135 174.38 672.016 171.557Z" fill="#0F172A"/>
<path fill-rule="evenodd" clip-rule="evenodd" d="M664.081 173.235C666.534 172.829 668.764 172.266 670.913 171.694C674.174 174.769 677.312 177.68 680.244 180.524C678.237 181.129 676.219 181.84 673.825 182.404C670.606 179.337 667.259 176.255 664.079 173.235H664.081Z" fill="#0F172A"/>
<path fill-rule="evenodd" clip-rule="evenodd" d="M653.949 175.12C656.817 174.543 659.601 173.933 662.366 173.524C665.619 176.531 669.028 179.903 672.319 183.086C669.83 183.717 667.403 184.64 664.892 185.555C661.318 181.971 657.545 178.566 653.949 175.117V175.12Z" fill="#0F172A"/>
<path fill-rule="evenodd" clip-rule="evenodd" d="M642.942 176.816C646.295 176.348 649.631 175.88 652.441 175.283C656.109 178.675 659.88 182.125 663.525 185.68C660.691 186.541 657.7 187.288 654.612 188.102C650.916 184.41 647.025 180.679 642.942 176.816Z" fill="#0F172A"/>
<path fill-rule="evenodd" clip-rule="evenodd" d="M630.39 179.05C634.25 178.494 637.795 177.869 641.179 177.204C645.404 181.201 649.362 185.041 653.058 188.679C649.953 189.506 646.591 190.538 643.141 191.507C638.807 187.239 634.799 183.316 630.39 179.048V179.05Z" fill="#0F172A"/>
<path fill-rule="evenodd" clip-rule="evenodd" d="M616.217 181.824C620.606 181.126 624.684 180.337 628.661 179.585C632.915 183.799 637.145 187.856 641.404 192.05C637.759 193.157 633.865 194.235 629.877 195.321C625.367 190.739 620.67 186.147 616.217 181.824Z" fill="#0F172A"/>
<path fill-rule="evenodd" clip-rule="evenodd" d="M598.287 184.247C603.326 183.311 608.151 182.61 612.638 182C617.242 186.277 621.914 190.956 626.49 195.525C622.245 196.469 617.663 197.485 613.092 198.891C608.059 193.741 603.267 188.958 598.284 184.247H598.287Z" fill="#0F172A"/>
<path fill-rule="evenodd" clip-rule="evenodd" d="M579.85 187.288C585.527 186.256 591.118 185.09 596.024 184.188C601.052 189.108 606.141 193.958 610.946 198.987C606.105 200.365 600.982 201.87 595.391 203.101C590.268 197.793 585.104 192.642 579.85 187.29V187.288Z" fill="#0F172A"/>
<path fill-rule="evenodd" clip-rule="evenodd" d="M557.934 190.933C564.509 189.868 571.031 188.945 576.664 187.433C581.968 192.883 587.389 198.38 592.42 203.732C586.829 205.239 580.956 206.773 574.738 208.231C569.052 202.287 563.609 196.66 557.931 190.933H557.934Z" fill="#0F172A"/>
<path fill-rule="evenodd" clip-rule="evenodd" d="M533.103 195.825C540.829 194.338 547.934 193.009 554.612 191.598C560.345 197.467 566.137 203.331 571.795 209.446C564.827 211.243 558.4 213.484 551.025 215.24C544.932 208.711 538.909 202.211 533.103 195.825Z" fill="#0F172A"/>
<path fill-rule="evenodd" clip-rule="evenodd" d="M504.404 201.945C513.44 200.295 521.448 198.736 529.522 197.1C535.548 203.545 541.56 210.108 547.58 216.522C540.041 218.844 532.056 221.117 523.677 223.444C517.049 215.917 510.75 208.841 504.404 201.945Z" fill="#0F172A"/>
<path fill-rule="evenodd" clip-rule="evenodd" d="M205.685 164.684C211.374 160.449 216.943 156.175 222.032 152.273C230.254 156.609 238.44 160.648 246.707 165.227C242.094 169.713 237.526 174.416 232.005 179.228C223.091 174.32 214.184 169.442 205.688 164.684H205.685Z" fill="#0F172A"/>
<path fill-rule="evenodd" clip-rule="evenodd" d="M484.726 155.992C486.989 153.869 489.199 151.894 491.499 150.203C494.701 152.292 498.038 154.518 501.332 156.636C499.286 158.645 497.355 160.804 495.278 163.232C491.733 160.763 488.196 158.311 484.723 155.992H484.726Z" fill="#0F172A"/>
<path fill-rule="evenodd" clip-rule="evenodd" d="M574.289 77.5692C575.169 76.3178 575.978 75.0147 576.722 73.709C579.604 75.93 582.681 78.3346 585.702 80.6771C585.231 82.1793 584.565 83.5522 583.812 85.0234C580.652 82.549 577.438 80.0333 574.291 77.5692H574.289Z" fill="#0F172A"/>
<path fill-rule="evenodd" clip-rule="evenodd" d="M106.428 294.664C113.538 289.48 120.244 284.513 126.758 280.141C135.239 282.571 143.562 285.449 152.294 288.195C145.961 292.973 139.729 298.136 133.324 303.7C124.216 300.51 114.898 297.635 106.425 294.661L106.428 294.664Z" fill="#0F172A"/>
<path fill-rule="evenodd" clip-rule="evenodd" d="M553.993 94.3854C554.693 93.6692 555.245 92.9711 555.794 92.2988C557.667 93.5658 559.551 94.8094 561.371 96.0505C560.95 96.8184 560.515 97.7207 560.028 98.4757C558.013 97.1183 556.073 95.7712 553.993 94.3828V94.3854Z" fill="#0F172A"/>
<path fill-rule="evenodd" clip-rule="evenodd" d="M489.453 61.6188C491.142 60.9492 492.742 60.3571 494.325 59.8115C496.714 61.3241 499.099 62.8883 501.541 64.5379C500.209 65.2852 498.745 65.9496 497.082 66.808C494.595 65.0007 492.023 63.3124 489.453 61.6214V61.6188Z" fill="#0F172A"/>
<path fill-rule="evenodd" clip-rule="evenodd" d="M130.225 122.977C136.92 120.412 143.144 118.173 149.058 116.063C156.706 119.016 163.947 121.845 170.876 124.844C165.533 127.329 159.906 129.873 153.609 133.001C145.527 129.493 137.672 126.013 130.225 122.977Z" fill="#0F172A"/>
<path fill-rule="evenodd" clip-rule="evenodd" d="M516.832 57.6219C517.852 57.1746 518.616 56.5876 519.424 56.1455C521.369 57.3297 523.223 58.6664 525.096 59.9566C524.41 60.5229 523.777 61.1925 522.95 61.7096C521.085 60.3832 518.961 58.9793 516.832 57.6219Z" fill="#0F172A"/>
<path fill-rule="evenodd" clip-rule="evenodd" d="M559.392 47.8539C559.933 47.4867 560.524 47.2049 561.056 46.8662C562.458 47.8772 563.994 48.9217 565.34 49.8861C564.874 50.2792 564.47 50.6773 564.055 51.1324C562.519 50.0542 560.925 48.9553 559.392 47.8539Z" fill="#0F172A"/>
<path fill-rule="evenodd" clip-rule="evenodd" d="M662.152 147.413C662.381 146.87 662.682 146.327 662.838 145.805C663.958 146.518 665.004 147.333 666.124 148.077C666.038 148.708 665.882 149.306 665.725 149.903C664.463 149.068 663.34 148.24 662.152 147.413Z" fill="#0F172A"/>
<path fill-rule="evenodd" clip-rule="evenodd" d="M101.286 207.145C106.052 205.022 109.909 203.018 113.979 201.1C119.954 202.674 125.676 204.099 131.379 205.64C127.881 207.607 123.92 209.901 119.729 212.073C113.483 210.49 107.365 208.768 101.286 207.145Z" fill="#0F172A"/>
<path fill-rule="evenodd" clip-rule="evenodd" d="M452.021 51.3488C453.693 50.8886 455.402 50.5731 456.848 50.1025C459.176 51.5168 461.634 52.9854 463.836 54.348C462.434 54.922 461.121 55.4107 459.572 55.9485C457.255 54.467 454.546 52.8329 452.021 51.3488Z" fill="#0F172A"/>
<path fill-rule="evenodd" clip-rule="evenodd" d="M513.646 16.3875C514.708 16.2039 515.77 16.0462 516.812 15.9971C518.562 17.0313 520.229 18.2129 521.904 19.3454C520.912 19.5057 519.914 19.6815 518.914 19.8858C517.124 18.6654 515.385 17.5045 513.646 16.3875Z" fill="#0F172A"/>
<path fill-rule="evenodd" clip-rule="evenodd" d="M540.085 59.217C541.05 58.9326 542 58.7309 542.889 58.4775C544.386 59.4807 546.08 60.5822 547.652 61.575C546.758 61.8698 545.933 62.1439 545.032 62.4438C543.338 61.3475 541.774 60.3159 540.082 59.217H540.085Z" fill="#0F172A"/>
<path fill-rule="evenodd" clip-rule="evenodd" d="M702.744 175.094C703.018 174.68 703.221 174.354 703.497 173.94C704.38 174.504 705.261 175.073 706.072 175.603C705.874 176.03 705.746 176.43 705.47 176.777C704.584 176.242 703.625 175.665 702.744 175.094Z" fill="#0F172A"/>
<path fill-rule="evenodd" clip-rule="evenodd" d="M562.809 82.2852C563.773 81.9905 564.676 81.6518 565.562 81.4346C566.973 82.3266 568.522 83.2832 570.011 84.1727C569.116 84.4674 568.221 84.7777 567.388 85.1293C565.908 84.1908 564.356 83.247 562.809 82.2852Z" fill="#0F172A"/>
<path fill-rule="evenodd" clip-rule="evenodd" d="M412.776 94.6232C414.869 94.1139 416.876 93.5942 418.804 93.1133C421.343 94.388 423.816 95.6006 426.494 96.9347C424.512 97.3562 422.567 97.9328 420.624 98.468C418.099 97.1545 415.334 95.8514 412.776 94.6232Z" fill="#0F172A"/>
<path fill-rule="evenodd" clip-rule="evenodd" d="M709.503 166.156C709.762 165.734 710.1 165.37 710.362 165.044C711.228 165.558 712.028 166.096 712.831 166.699C712.572 167.058 712.307 167.433 712.048 167.852C711.173 167.275 710.3 166.699 709.503 166.156Z" fill="#0F172A"/>
<path fill-rule="evenodd" clip-rule="evenodd" d="M586.159 102.476C587.054 102.184 587.957 101.799 588.779 101.491C590.165 102.352 591.413 103.141 592.734 103.981C591.982 104.307 591.224 104.674 590.393 105.067C589.005 104.172 587.612 103.392 586.159 102.474V102.476Z" fill="#0F172A"/>
<path fill-rule="evenodd" clip-rule="evenodd" d="M574.805 68.2511C575.588 68.0623 576.355 67.9899 577.132 67.8555C578.272 68.5794 579.468 69.3887 580.616 70.0687C579.975 70.198 579.195 70.3841 578.543 70.591C577.277 69.7765 576.076 68.9905 574.805 68.2536V68.2511Z" fill="#0F172A"/>
<path fill-rule="evenodd" clip-rule="evenodd" d="M0.000566599 254.784C6.3609 253 13.0863 250.882 19.8842 249.044C26.1805 250.301 32.9812 251.195 39.375 252.294C33.2627 254.037 26.6431 256.079 20.5281 258.104C13.3846 256.984 6.77619 255.953 0.000566599 254.786V254.784Z" fill="#0F172A"/>
<path fill-rule="evenodd" clip-rule="evenodd" d="M488.798 27.0479C490.2 27.0996 491.463 27.1125 492.725 27.1228C494.205 27.9993 495.749 28.9146 497.344 29.8946C496.087 29.8403 494.936 29.9385 493.667 29.9282C492.073 28.9508 490.476 27.9631 488.801 27.0479H488.798Z" fill="#0F172A"/>
<path fill-rule="evenodd" clip-rule="evenodd" d="M692.052 171.322C692.482 171.025 692.911 170.717 693.192 170.433C693.992 170.908 694.867 171.451 695.598 171.886C695.316 172.204 694.962 172.475 694.608 172.817C693.733 172.266 692.928 171.806 692.052 171.325V171.322Z" fill="#0F172A"/>
<path fill-rule="evenodd" clip-rule="evenodd" d="M314.123 139.631C317.289 138.912 320.681 138.483 323.911 137.831C327.094 138.863 329.99 139.765 332.836 140.825C329.904 141.327 326.729 142.033 323.415 142.738C320.319 141.673 317.139 140.649 314.126 139.631H314.123Z" fill="#0F172A"/>
<path fill-rule="evenodd" clip-rule="evenodd" d="M324.932 193.198C327.789 191.535 330.615 189.881 333.458 188.44C337.438 189.865 341.496 191.541 345.582 193.156C342.937 194.798 340.309 196.399 337.653 198.266C333.224 196.394 329.029 194.824 324.932 193.195V193.198Z" fill="#0F172A"/>
<path fill-rule="evenodd" clip-rule="evenodd" d="M701.078 184.877C701.351 184.146 701.549 183.398 701.75 182.76C702.868 183.507 704.063 184.334 705.262 185.195C705.142 185.943 705.019 186.791 704.83 187.556C703.626 186.674 702.352 185.777 701.078 184.875V184.877Z" fill="#0F172A"/>
<path fill-rule="evenodd" clip-rule="evenodd" d="M394.107 127.049C396.683 125.679 399.057 124.456 401.262 123.264C404.651 125.014 408.182 126.873 411.711 128.766C409.492 130.035 407.511 131.561 405.038 132.872C401.287 130.909 397.705 128.957 394.107 127.049Z" fill="#0F172A"/>
</g>
<defs>
<clipPath id="clip0_464_1906">
<rect width="725" height="368" fill="white" transform="matrix(-1 0 0 1 725 0)"/>
</clipPath>
</defs>
</svg>
