<svg width="884" height="363" viewBox="0 0 884 363" fill="none" xmlns="http://www.w3.org/2000/svg">
<path d="M244.229 112.306C244.796 115.775 233.629 125.461 230.691 128.06C228.729 129.335 226.102 131.548 223.654 133.213C217.074 137.684 212.73 139.338 205.484 142.307C189.5 148.856 162.311 148.41 150.567 161.445C148.718 163.498 147.91 166.73 148.317 169.461C150.005 180.77 169.889 183.783 178.966 187.704C185.49 190.523 190.454 192.036 196.519 196.5C203.895 201.803 208.83 209.67 210.044 218.772C214.835 254.675 175.966 272.319 146.99 278.822C141.274 280.105 135.658 280.686 129.968 281.557C144.518 285.283 147.391 287.265 163.531 288.068C163.561 292.897 163.544 297.726 163.482 302.555C144.537 301.253 128.414 297.64 111.561 288.459C114.718 278.431 118.846 268.385 122.261 258.42C123.593 254.534 125.149 249.957 126.878 246.309C139.577 245.053 168.124 242.741 170.703 226.279C172.948 211.948 147.278 207.229 138.21 202.157C131.924 198.641 125.866 195.638 121.5 189.482C117.341 184.11 115.829 175.125 117.047 168.711C124.228 130.879 183.884 136.65 212.523 128.095C227.529 123.613 231.753 121.413 244.229 112.306Z" fill="#05AB99"/>
<path d="M223.893 118.346C216.233 107.496 208.669 92.2171 210.969 78.6726C212.359 70.5036 216.989 63.241 223.807 58.5315C230.804 53.7111 239.426 51.8603 247.784 53.3852C256.009 54.8312 263.328 59.4716 268.143 66.2939C285.275 90.9525 258.555 123.616 242.118 141.168C239.779 138.642 232.407 130.742 230.691 128.06C233.63 125.461 244.797 115.775 244.229 112.306C253.854 102.813 266.144 84.8428 253.994 72.55C247.334 65.6707 236.769 65.7155 229.979 72.5197C223.681 78.831 223.621 89.7784 229.979 96.2123C233.166 99.4374 239.356 100.545 239.176 94.7076C238.241 93.3739 237.243 92.4347 236.142 91.249C228.789 83.3273 232.896 76.8831 242.248 74.9386C251.011 77.493 253.394 83.0485 250.547 91.5533C246.718 102.993 234.677 113.505 223.893 118.346Z" fill="#1B3558"/>
<path d="M279.007 182.847C283.711 182.962 288.417 182.965 293.121 182.858C292.321 188.946 292.046 194.679 290.944 200.888C287.718 219.049 279.617 237.379 268.681 252.222C249.178 278.535 220.049 296.058 187.664 300.959C183.698 301.846 178.164 302.059 174.02 302.304C174.101 297.698 174 292.793 173.985 288.163C198.262 287.271 221.508 278.125 239.884 262.235C263.883 241.543 276.671 214.239 279.007 182.847Z" fill="#1B3558"/>
<path d="M159.586 52.8473L163.218 52.6682L163.223 66.6892C138.83 67.7247 115.522 77.0617 97.1613 93.1533C73.3136 113.723 60.7723 141.069 58.457 172.177L48.2361 172.2C46.7479 172.262 46.3762 172.289 44.9311 171.975C43.9452 170.101 45.4085 160.892 45.7995 158.322C49.3265 135.087 59.3703 113.328 74.7652 95.5721C96.2557 70.6477 126.766 55.2796 159.586 52.8473Z" fill="#1B3558"/>
<path d="M625.016 160.028C638.988 159.374 650.858 170.145 651.553 184.115C652.252 198.085 641.517 209.986 627.549 210.727C613.521 211.472 601.556 200.68 600.852 186.649C600.153 172.618 610.983 160.686 625.016 160.028ZM629.626 199.979C637.719 198.087 642.734 189.976 640.814 181.89C638.889 173.803 630.761 168.818 622.68 170.773C614.643 172.716 609.692 180.792 611.605 188.835C613.517 196.879 621.575 201.861 629.626 199.979Z" fill="#1B3558"/>
<path d="M152.01 76.157L152.303 76.1445L152.535 76.432C150.804 77.2145 148.847 77.9151 147.164 78.6122C134.23 83.973 114.456 104.714 109.692 118.024C127.485 123.047 147.8 127.422 166.354 126.457C162.891 127.499 157.134 128.261 153.273 129.393C150.691 130.15 141.686 132.911 139.841 133.039C130.393 133.694 114.284 128.752 105.399 125.964C95.8199 153.088 93.0496 170.07 97.1688 199.078C99.2566 209.399 101.273 216.969 104.918 226.836C102.694 228.131 99.3801 229.699 97.0181 230.908L96.3046 229.204C82.414 195.643 83.2415 156.175 97.1049 122.729C92.4112 120.89 88.9801 119.417 84.6611 116.846C86.591 114.222 88.1898 112.095 90.3182 109.618C93.821 111.359 97.3436 113.057 100.886 114.716C114.511 89.8522 122.813 80.6848 152.01 76.157Z" fill="#05AB99"/>
<path d="M368.327 161.338C377.249 161.321 387.098 160.833 395.788 162.071C402.539 163.388 408.492 168.118 409.471 175.145C410.72 184.115 407.869 189.084 400.406 193.719C403.328 198.218 407.85 205.407 411.145 209.301L403.169 209.399L398.908 209.251C395.931 205.462 392.328 199.529 389.71 195.422L379.449 195.456L379.509 209.344C375.737 209.336 372.313 209.31 368.539 209.6C368.368 196.268 368.605 182.915 368.502 169.58C368.48 166.82 368.536 164.094 368.327 161.338ZM379.495 186.496C385.262 186.518 392.01 187.425 396.549 184.025C400.222 179.117 399.046 174.431 394.072 171.061C389.526 170.145 384.152 170.327 379.46 170.35C379.469 175.672 379.399 181.192 379.495 186.496Z" fill="#1B3558"/>
<path d="M125.146 225.716L125.945 225.963C125.052 228.214 124.202 230.492 123.421 232.784C116.118 254.197 107.293 275.347 100.351 296.864C96.6599 287.273 93.2469 276.316 90.4688 266.47C88.0292 264.951 64.0908 260.08 59.4248 258.765C67.809 254.895 76.946 250.018 85.2486 245.795L125.146 225.716ZM78.3333 256.557L82.553 257.432C86.2547 258.304 91.0723 259.276 94.5073 260.701C96.2243 258.648 113.554 239.125 113.611 238.783L113.178 238.649C102.241 244.917 88.3689 250.592 78.3333 256.557Z" fill="#05AB99"/>
<path d="M433.54 161.312L444.667 161.358C452.143 176.178 458.942 193.974 466.236 209.323C462.343 209.382 458.454 209.383 454.565 209.328C453.071 206.424 451.565 202.374 450.317 199.276L444.931 199.297L427.828 199.287C426.51 202.658 425.127 206.005 423.681 209.324L412.33 209.454C416.949 200.071 420.635 189.54 425.188 180.049C428.101 173.982 430.32 167.187 433.54 161.312ZM431.498 190.742L439.971 190.729L446.493 190.709C445.28 187.526 440.64 174.317 438.827 172.745C436.319 178.718 433.876 184.718 431.498 190.742Z" fill="#1B3558"/>
<path d="M517.735 161.349C529.597 161.559 542.037 161.351 553.941 161.333L553.89 170.382C545.77 170.201 536.922 170.378 528.742 170.381L528.764 180.839C535.92 180.966 543.932 180.746 551.144 180.694L550.92 189.37C544.048 189.153 535.735 189.353 528.768 189.358L528.88 200.233L554.77 200.199L554.658 209.486C545.356 208.753 527.654 209.359 517.753 209.388C518.279 202.038 517.861 191.226 517.938 183.63C517.994 177.684 518.236 166.972 517.735 161.349Z" fill="#1B3558"/>
<path d="M238.468 176.314C238.648 178.934 238.678 180.343 238.515 182.961C241.23 182.933 244.45 182.821 247.12 182.962C247.35 198.37 244.006 217.116 238.685 231.526C243.498 233.68 247.598 235.495 252.185 238.065C251.308 239.744 248.248 243.582 246.964 245.272C243.135 243.368 239.276 241.525 235.389 239.743C230.793 249.016 223.327 263.711 214.542 269.504C209.7 272.697 193.224 278.129 187.387 278.667C187.415 278.556 197.464 273.228 199.755 271.549C212.055 262.528 220.089 249.959 226.981 236.639C224.362 235.766 220.565 234.957 217.809 234.286C218.339 231.584 218.607 227.922 218.889 225.111C222.938 226.395 226.139 227.086 230.402 228.602C237.178 207.522 238.249 198.271 238.468 176.314Z" fill="#1B3558"/>
<path d="M502.412 161.371L513.449 161.314C512.197 164.634 510.868 167.925 509.469 171.186C503.888 183.636 498.877 197.203 493.175 209.362C489.549 209.386 485.923 209.383 482.298 209.352C475.469 195.012 468.049 176.242 461.972 161.41L473.924 161.35C476.954 170.618 484.063 186.39 488.121 195.786C492.333 185.132 497.66 171.753 502.412 161.371Z" fill="#1B3558"/>
<path d="M231.172 136.905C235.275 142.493 238.305 145.959 243.889 150.331C246.118 162.318 246.54 170.909 247.12 182.962C244.451 182.821 241.231 182.934 238.516 182.961C238.678 180.343 238.648 178.934 238.468 176.314C238.045 168.945 237.154 157.47 235.259 150.41C225.574 159.319 213.567 170.43 199.689 170.74C195.678 170.83 189.194 167.677 189.919 163.223C191.315 154.65 207.519 152.954 214.067 149.501C221.561 145.548 225.55 142.541 231.172 136.905Z" fill="#05AB99"/>
<path d="M44.376 182.933C49.206 182.844 53.6645 182.785 58.4893 182.945C59.347 204.458 66.2213 222.656 77.8704 240.535L74.1281 242.554C71.2719 243.832 67.9962 245.55 65.15 246.951C55.0932 230.251 49.0329 217.014 45.91 197.364C45.1521 192.595 44.9583 187.752 44.376 182.933Z" fill="#1B3558"/>
<path d="M274.358 111.678C275.724 113.052 278.815 118.895 279.781 120.832C288.318 137.938 291.71 153.446 293.085 172.34C290.145 172.211 287.569 172.324 284.627 172.441L278.998 172.478C278.462 169.493 278.35 166.186 277.941 163.137C277.037 156.643 275.61 150.232 273.676 143.966C266.778 121.946 262.015 132.1 274.358 111.678Z" fill="#05AB99"/>
<path d="M562.958 161.349C566.649 161.42 570.469 161.356 574.172 161.343C573.563 172.257 574.146 188.92 574.163 200.203L597.511 200.104L597.455 209.334C587.911 209.213 572.212 208.937 563.031 209.55C563.1 193.893 563.359 176.945 562.958 161.349Z" fill="#1B3558"/>
<path d="M803.032 161.351L836.804 161.363L836.692 166.486C827.614 166.56 818.537 166.558 809.459 166.483L809.429 182.384C817.13 182.137 826.147 182.349 833.959 182.324C833.899 184.042 833.821 185.759 833.731 187.476C825.629 187.545 817.531 187.544 809.429 187.474L809.421 204.162L837.87 204.104L837.749 209.31C826.742 209.32 813.922 209.025 803.058 209.519C803.192 206.879 803.261 204.175 803.218 201.531C803.015 188.199 803.628 174.655 803.032 161.351Z" fill="#1B3558"/>
<path d="M749.436 161.342L755.881 161.341C755.544 171.559 755.091 183.907 756.174 193.876C758.337 208.492 781.395 208.322 783.061 193.917C784.261 183.563 783.648 171.73 783.601 161.313C785.405 161.351 787.55 160.889 789.117 161.496C790.088 162.707 789.751 162.698 789.739 164.662C789.747 172.859 790.438 191.607 788.34 198.179C787.611 200.522 786.311 202.648 784.559 204.37C777.342 211.605 762.057 212.054 754.78 204.434C746.989 196.278 749.928 180.873 749.389 170.426C749.246 167.631 749.419 164.166 749.436 161.342Z" fill="#1B3558"/>
<path d="M681.258 161.054C689.571 160.476 694.997 162.748 701.2 167.99C700.034 169.416 698.485 170.781 697.129 172.053C691.199 167.146 684.892 164.525 677.213 167.08C672.392 168.661 668.408 172.115 666.163 176.664C663.802 181.517 663.461 187.106 665.205 192.212C668.853 202.66 680.131 207.05 690.331 203.451C693.184 202.029 694.967 200.449 697.406 198.455C698.597 199.531 701.601 201.793 699.922 203.532C691.682 212.062 676.13 211.892 667.113 204.715C662.093 200.663 658.899 194.778 658.23 188.363C656.521 173.145 666.461 162.604 681.258 161.054Z" fill="#1B3558"/>
<path d="M354.172 161.449C356.455 161.287 359.838 161.355 362.205 161.327C362.161 164.298 362.226 167.427 362.238 170.412C357.128 170.364 351.89 170.445 346.769 170.466C346.793 174.889 347.188 207.365 346.481 209.225L345.114 209.309C342.07 209.288 339.026 209.371 335.988 209.557C335.902 192.981 331.346 164.315 354.172 161.449Z" fill="#1B3558"/>
<path d="M174.134 52.6221C185.004 52.8241 200.114 55.7859 210.09 59.8726C208.197 63.1495 206.894 65.3689 205.441 68.9092C205.154 69.7841 204.326 71.5024 203.917 72.4157C193.128 68.9618 185.192 67.5262 173.961 66.8982C173.937 62.1386 173.995 57.3795 174.134 52.6221Z" fill="#05AB99"/>
<path d="M710.566 161.352L716.739 161.347C716.57 175.53 716.726 189.95 716.752 204.149C725.462 203.964 734.656 204.095 743.401 204.083L743.345 209.319C732.632 209.332 721.258 209.161 710.601 209.479L710.566 161.352Z" fill="#1B3558"/>
<path d="M320 161.35C327.987 161.462 336.268 161.347 344.277 161.341C340.875 162.682 339.907 163.172 337.013 165.283C335.089 166.989 333.133 168.657 331.145 170.287C327.647 170.454 323.568 170.394 320.024 170.429C320.197 167.032 320.335 164.777 320 161.35Z" fill="#1B3558"/>
</svg>
