<svg width="566" height="282" viewBox="0 0 566 282" fill="none" xmlns="http://www.w3.org/2000/svg">
<g clip-path="url(#clip0_464_2081)">
<path fill-rule="evenodd" clip-rule="evenodd" d="M138.534 4.26768C138.95 3.72281 139.551 3.92094 139.176 1.56317C137.777 -2.29843 139.559 2.28833 139.394 1.63251C139.187 2.77178 138.423 2.21701 137.956 2.15558C138.099 2.66677 138.293 3.491 138.534 4.26768Z" fill="#0F172A"/>
<path fill-rule="evenodd" clip-rule="evenodd" d="M49.6826 240.555C46.447 235.631 43.8076 230.216 41.2182 225.386C39.8409 227.331 35.8938 248.621 30.4409 282H42.2388C45.8116 257.497 48.4684 242.302 49.6826 240.555Z" fill="#0F172A"/>
<path fill-rule="evenodd" clip-rule="evenodd" d="M39.58 226.432C36.9646 221.861 34.5341 217.508 32.0753 214.201C30.7371 215.974 25.961 242.069 19.394 282H30.0582C34.83 249.223 38.2984 228.308 39.58 226.432Z" fill="#0F172A"/>
<path fill-rule="evenodd" clip-rule="evenodd" d="M30.8982 212.874C28.694 209.999 26.5899 207.268 24.5119 204.673C22.0509 217.7 19.5595 230.555 17.1682 243.33C14.7355 256.304 12.3355 269.213 9.99854 281.972L10.1552 281.998H19.7423C23.3152 259.294 27.11 236.174 30.8982 212.872V212.874Z" fill="#0F172A"/>
<path fill-rule="evenodd" clip-rule="evenodd" d="M23.6479 203.321C21.8071 200.632 20.0511 198.241 18.38 195.988C15.2118 210.289 12.0481 224.434 9.00178 238.307C5.9272 252.321 2.9092 266.175 0 279.759V280.315C2.76342 280.793 5.60299 281.267 8.51872 281.698C10.897 268.838 13.4124 255.775 15.9495 242.599C18.4431 229.645 21.0977 216.566 23.6479 203.321Z" fill="#0F172A"/>
<path fill-rule="evenodd" clip-rule="evenodd" d="M17.5488 194.99C15.9734 192.836 14.7331 190.663 13.6365 188.354C9.78075 203.732 5.87933 218.974 2.26948 233.976L0 243.41V273.805C2.57629 261.939 5.25049 249.9 7.95298 237.737C11.0689 223.697 14.2914 209.39 17.551 194.992L17.5488 194.99Z" fill="#0F172A"/>
<path fill-rule="evenodd" clip-rule="evenodd" d="M12.8336 187.483C11.4976 185.549 10.2986 183.712 9.24113 181.689C6.13609 193.213 3.03976 204.637 0 215.949V238.767L1.30555 233.469C5.01114 218.419 8.88645 203.032 12.8336 187.485V187.483Z" fill="#0F172A"/>
<path fill-rule="evenodd" clip-rule="evenodd" d="M8.64928 180.847C7.59178 179.251 6.86938 177.374 6.15132 175.508C4.07767 182.617 2.02796 189.684 0 196.704V212.67C2.86351 202.176 5.77054 191.562 8.64928 180.849V180.847Z" fill="#0F172A"/>
<path fill-rule="evenodd" clip-rule="evenodd" d="M5.37887 175.006C4.66299 173.383 4.01675 171.719 3.55763 170.112L0 181.699V193.498C1.77555 187.368 3.56851 181.2 5.37887 175.006Z" fill="#0F172A"/>
<path fill-rule="evenodd" clip-rule="evenodd" d="M3.26605 168.839C2.69161 167.274 2.23684 165.776 1.84083 164.435L0 170.19V179.447L3.26605 168.839Z" fill="#0F172A"/>
<path fill-rule="evenodd" clip-rule="evenodd" d="M1.71462 163.598C1.38388 162.18 1.23592 160.753 1.02703 159.376L0 162.497V168.924L1.71462 163.598Z" fill="#0F172A"/>
<path fill-rule="evenodd" clip-rule="evenodd" d="M0.942173 158.855C0.796386 157.497 0.894303 155.974 1.04662 154.527L0 157.616V161.704L0.942173 158.855Z" fill="#0F172A"/>
<path fill-rule="evenodd" clip-rule="evenodd" d="M1.10754 153.535C1.12277 152.386 1.38606 151.045 1.64935 149.624L0 154.47V156.79L1.10754 153.535Z" fill="#0F172A"/>
<path fill-rule="evenodd" clip-rule="evenodd" d="M1.67523 149.262C1.92329 148.051 2.34107 146.886 2.82194 145.564L0.00195312 153.874V154.15L1.67741 149.262H1.67523Z" fill="#0F172A"/>
<path fill-rule="evenodd" clip-rule="evenodd" d="M3.09633 144.784C3.67948 143.634 4.32355 142.376 4.77397 141.394C3.18772 146.099 1.59277 150.805 0 155.501V153.9C1.04009 150.862 2.07583 147.827 3.09633 144.784Z" fill="#0F172A"/>
<path fill-rule="evenodd" clip-rule="evenodd" d="M5.2703 140.644C5.95354 139.553 6.86307 138.324 7.76825 137.165C5.17456 144.934 2.57433 152.699 -0.00195312 160.442V156.281C1.76054 151.07 3.52521 145.849 5.26812 140.644H5.2703Z" fill="#0F172A"/>
<path fill-rule="evenodd" clip-rule="evenodd" d="M140.499 282C134.226 276.421 128.264 271.23 122.606 265.932C119.125 271.168 115.485 276.571 111.853 282H140.499Z" fill="#0F172A"/>
<path fill-rule="evenodd" clip-rule="evenodd" d="M119.377 263.254C112.902 257.025 106.894 251.862 101.241 247.093C94.8548 255.149 88.9363 262.969 82.6914 271.637C85.4831 274.768 88.3336 278.283 91.3168 282.002H106.574C110.874 275.568 115.139 269.349 119.377 263.254Z" fill="#0F172A"/>
<path fill-rule="evenodd" clip-rule="evenodd" d="M98.5929 244.539C92.9921 239.962 88.0592 235.611 83.2701 231.425C77.6714 238.294 71.927 245.621 66.3262 252.849C70.6019 257.852 75.3214 262.967 80.1759 268.62C86.3468 260.451 92.2566 252.532 98.5929 244.539Z" fill="#0F172A"/>
<path fill-rule="evenodd" clip-rule="evenodd" d="M80.9505 229.499C76.5334 225.958 72.299 222.364 68.3345 219.025C63.3712 225.043 58.223 230.888 53.0073 237.123C56.6389 241.226 60.3423 245.557 64.2895 250.429C69.8489 243.414 75.4693 236.176 80.9527 229.499H80.9505Z" fill="#0F172A"/>
<path fill-rule="evenodd" clip-rule="evenodd" d="M54.5742 206.744C51.5344 203.988 48.5425 201.529 45.6529 199.151C41.5557 203.592 37.0798 208.475 32.9956 213.197C35.3108 216.046 37.998 219.089 40.6766 222.557C45.3287 216.981 49.872 212.119 54.5742 206.744Z" fill="#0F172A"/>
<path fill-rule="evenodd" clip-rule="evenodd" d="M43.9731 198.334C41.3903 196.02 38.777 193.92 36.5053 191.574C32.8411 195.531 28.9984 199.608 25.4277 203.565C27.3752 206.238 29.5468 208.917 31.8141 211.772C35.7764 207.326 39.9999 202.687 43.9731 198.334Z" fill="#0F172A"/>
<path fill-rule="evenodd" clip-rule="evenodd" d="M34.8602 190.223C32.7604 188.097 30.7477 186.161 28.8198 184.237C25.4711 187.726 22.0179 191.414 18.8433 194.851C20.3816 197.056 22.1985 199.291 24.1025 201.752C27.671 197.837 31.4462 193.916 34.8624 190.223H34.8602Z" fill="#0F172A"/>
<path fill-rule="evenodd" clip-rule="evenodd" d="M27.608 183.165C25.7737 181.517 24.1418 179.801 22.3989 178.21C19.4984 181.2 16.439 184.263 13.5342 187.253C14.757 189.406 16.1866 191.522 17.5009 193.799C20.8692 190.336 24.3833 186.664 27.608 183.165Z" fill="#0F172A"/>
<path fill-rule="evenodd" clip-rule="evenodd" d="M21.722 177.378C20.188 175.865 18.7911 174.107 17.5878 172.542C14.8875 175.209 12.3482 177.836 9.46289 180.675C10.6488 182.589 11.8477 184.398 13.1163 186.364C15.9515 183.467 18.8824 180.461 21.7242 177.378H21.722Z" fill="#0F172A"/>
<path fill-rule="evenodd" clip-rule="evenodd" d="M16.8131 171.309C15.5076 169.916 14.387 168.595 13.2163 167.231C10.7119 169.718 8.24001 172.276 6.07715 174.455C6.79738 176.177 7.77654 177.794 8.57075 179.644C11.2624 176.867 14.0541 174.008 16.8153 171.309H16.8131Z" fill="#0F172A"/>
<path fill-rule="evenodd" clip-rule="evenodd" d="M12.7485 166.801C11.7106 165.444 10.8642 163.972 9.95683 162.781C7.96368 164.679 5.95096 166.78 3.98828 168.808C4.57143 170.384 5.09365 172.058 5.80735 173.681C8.09642 171.372 10.3746 169.062 12.7485 166.801Z" fill="#0F172A"/>
<path fill-rule="evenodd" clip-rule="evenodd" d="M9.57205 161.975C8.67339 160.836 8.13812 159.52 7.60719 158.298C5.87734 159.952 4.0735 161.684 2.38281 163.374C2.71355 164.82 3.22924 166.245 3.55563 167.951C5.51396 166.011 7.65071 163.828 9.57422 161.975H9.57205Z" fill="#0F172A"/>
<path fill-rule="evenodd" clip-rule="evenodd" d="M7.21732 157.769C6.8126 156.495 6.3426 155.423 5.93788 154.223C4.40168 155.689 3.03521 157.125 1.42285 158.675C1.63609 159.99 1.84498 161.409 2.17572 162.778C3.92951 161.011 5.61149 159.336 7.21732 157.771V157.769Z" fill="#0F172A"/>
<path fill-rule="evenodd" clip-rule="evenodd" d="M5.74891 153.365C5.52261 152.19 5.23539 151.15 5.1897 149.907C3.78406 151.3 2.55684 152.519 1.38837 153.652C1.23605 155.118 1.27304 156.402 1.35791 157.838C2.72438 156.475 4.33239 154.823 5.74891 153.367V153.365Z" fill="#0F172A"/>
<path fill-rule="evenodd" clip-rule="evenodd" d="M26.4507 121.075C28.2262 120.201 29.893 119.379 31.7208 118.709C31.7186 118.949 31.773 119.093 31.9384 119.078C29.9974 119.91 27.9412 121.011 26.3267 121.802C26.3332 121.479 26.3332 121.386 26.4507 121.075Z" fill="#0F172A"/>
<path fill-rule="evenodd" clip-rule="evenodd" d="M4.97189 145.689C5.21124 144.572 5.38531 143.5 5.66818 142.559C4.95013 143.208 3.98837 144.16 3.20069 144.976C2.77856 146.24 2.36078 147.476 1.93213 148.756C3.08972 147.633 3.94485 146.733 4.96971 145.689H4.97189Z" fill="#0F172A"/>
<path fill-rule="evenodd" clip-rule="evenodd" d="M5.99706 141.71C6.39743 140.676 6.84784 139.626 7.29826 138.615C6.58238 139.37 6.04275 140.024 5.3247 140.753C4.57618 141.966 3.99521 143.119 3.40771 144.389C4.31942 143.406 5.04183 142.641 5.99923 141.71H5.99706Z" fill="#0F172A"/>
<path fill-rule="evenodd" clip-rule="evenodd" d="M14.483 129.48C15.5187 128.491 16.6045 127.582 17.7425 126.766C17.4531 127.134 17.1615 127.521 16.9287 127.832C15.671 128.856 14.4699 129.807 13.3188 130.786C13.7257 130.376 13.9607 130.068 14.483 129.48Z" fill="#0F172A"/>
<path fill-rule="evenodd" clip-rule="evenodd" d="M204.989 272.771C194.029 266.017 184.54 259.619 174.637 253.738C168.732 262.912 162.593 271.98 156.394 282.002H199.595C201.377 278.891 203.174 275.814 204.989 272.771Z" fill="#0F172A"/>
<path fill-rule="evenodd" clip-rule="evenodd" d="M170.198 251.133C161.488 245.512 153.341 240.129 145.802 235.195C139.478 243.812 133.216 252.397 126.98 261.513C134.3 267.717 141.791 274.624 150.354 281.33C156.918 270.768 163.742 260.909 170.198 251.133Z" fill="#0F172A"/>
<path fill-rule="evenodd" clip-rule="evenodd" d="M142.194 232.895C134.97 229.067 128.577 224.845 122.36 220.914C116.625 227.944 110.7 235.314 104.973 243.004C110.804 248.007 116.786 253.113 123.49 258.969C129.878 249.796 135.849 241.153 142.194 232.895Z" fill="#0F172A"/>
<path fill-rule="evenodd" clip-rule="evenodd" d="M119.53 218.824C113.541 215.293 108.082 211.715 102.823 208.709C97.5594 214.726 91.9585 221.548 86.6123 228.506C91.5081 232.443 96.726 236.285 102.357 240.695C107.869 233.349 113.755 226.048 119.53 218.824Z" fill="#0F172A"/>
<path fill-rule="evenodd" clip-rule="evenodd" d="M100.316 207.243C95.3074 204.522 90.7815 201.625 86.2925 199.26C81.301 204.631 76.5161 210.216 71.418 216.218C75.426 219.416 79.8366 222.677 84.2624 226.301C89.5543 219.947 95.0397 213.216 100.316 207.243Z" fill="#0F172A"/>
<path fill-rule="evenodd" clip-rule="evenodd" d="M40.6178 115.646C39.4537 115.537 38.4006 115.422 37.4606 115.256C35.5327 116.993 33.7637 118.614 31.875 120.263C32.8172 120.382 33.7049 120.663 34.7059 120.877C36.6511 119.197 38.529 117.449 40.6178 115.646Z" fill="#0F172A"/>
<path fill-rule="evenodd" clip-rule="evenodd" d="M70.5954 189.567C67.0508 187.627 63.8414 185.573 60.5427 183.687C56.4563 188.133 52.2481 192.601 48.1182 197.144C51.0622 199.313 54.115 201.715 57.4006 204.128C61.7503 199.23 66.113 194.439 70.5954 189.567Z" fill="#0F172A"/>
<path fill-rule="evenodd" clip-rule="evenodd" d="M58.7022 183.083C55.7625 181.194 52.7968 179.494 49.9768 177.757C46.467 181.46 42.7963 185.333 39.2734 189.245C41.6713 191.434 44.2193 193.508 46.8696 195.765C50.7623 191.646 54.7268 187.356 58.7022 183.083Z" fill="#0F172A"/>
<path fill-rule="evenodd" clip-rule="evenodd" d="M48.2205 176.728C45.5724 175.256 43.44 173.535 41.0857 172.132C37.7413 175.548 34.3664 178.928 31.2026 182.298C33.1305 184.145 35.2694 185.948 37.5628 187.971C41.2075 183.905 44.7651 180.247 48.2183 176.728H48.2205Z" fill="#0F172A"/>
<path fill-rule="evenodd" clip-rule="evenodd" d="M39.7541 171.194C37.5477 169.779 35.5436 168.345 33.4374 167.237C30.5151 170.134 27.4449 173.15 24.3398 176.54C26.0197 178.137 27.78 179.696 29.7448 181.511C32.9717 178.166 36.4097 174.533 39.7541 171.194Z" fill="#0F172A"/>
<path fill-rule="evenodd" clip-rule="evenodd" d="M32.6934 166.63C30.8482 165.288 29.077 164.159 27.5582 162.859C24.8818 165.512 22.1206 168.262 19.4551 170.846C20.8455 172.348 22.2468 174.008 23.9092 175.635C26.8227 172.514 29.7689 169.572 32.6934 166.628V166.63Z" fill="#0F172A"/>
<path fill-rule="evenodd" clip-rule="evenodd" d="M26.4719 161.97C24.8509 161.003 23.5431 159.713 22.2419 158.605C19.6896 161.039 17.1133 163.598 14.5762 166.204C15.9361 167.333 16.9936 168.841 18.2448 170.214C20.9124 167.506 23.7977 164.645 26.4719 161.972V161.97Z" fill="#0F172A"/>
<path fill-rule="evenodd" clip-rule="evenodd" d="M21.5285 158.257C20.1164 157.315 19.1938 156.061 18.0362 154.985C15.8516 157.066 13.5908 159.281 11.4976 161.393C12.5289 162.574 13.4407 163.893 14.4807 165.257C16.8286 162.917 19.159 160.571 21.5285 158.257Z" fill="#0F172A"/>
<path fill-rule="evenodd" clip-rule="evenodd" d="M11.6239 147.857C11.1517 146.826 10.7339 145.911 10.3749 144.966C8.8757 146.416 7.55057 147.7 6.16016 149.059C6.38645 150.161 6.73677 151.175 6.84339 152.465C8.54496 150.858 10.0638 149.345 11.6261 147.859L11.6239 147.857Z" fill="#0F172A"/>
<path fill-rule="evenodd" clip-rule="evenodd" d="M9.98753 144.632C9.86786 143.531 9.50666 142.776 9.44138 141.854C8.30772 142.936 7.10879 144.105 5.96644 145.245C5.90769 146.295 6.01866 147.392 6.13398 148.438C7.40472 147.164 8.66893 145.869 9.98753 144.632Z" fill="#0F172A"/>
<path fill-rule="evenodd" clip-rule="evenodd" d="M9.6177 138.237C9.71127 137.552 9.98543 136.541 10.19 135.782C9.42405 136.557 8.59285 137.431 7.8835 138.144C7.31993 139.216 6.92609 140.234 6.58447 141.265C7.5941 140.323 8.5515 139.289 9.61553 138.239L9.6177 138.237Z" fill="#0F172A"/>
<path fill-rule="evenodd" clip-rule="evenodd" d="M11.55 133.058C11.9721 132.393 12.6249 131.394 13.504 130.401C13.0362 130.962 12.4508 131.566 12.2115 131.998C11.1583 133.153 10.3881 134.073 9.55469 135.113C10.1465 134.469 10.9081 133.72 11.5522 133.058H11.55Z" fill="#0F172A"/>
<path fill-rule="evenodd" clip-rule="evenodd" d="M17.4856 126.176C18.2885 125.366 19.1393 124.647 19.9292 124.003C19.4157 124.611 18.9565 125.188 18.4452 125.687C17.4769 126.509 16.5043 127.399 15.647 128.11C16.3389 127.403 16.8546 126.868 17.4878 126.176H17.4856Z" fill="#0F172A"/>
<path fill-rule="evenodd" clip-rule="evenodd" d="M15.3945 130.28C15.5294 129.662 15.8341 128.996 15.969 128.372C15.1595 129.246 14.2913 130.124 13.4797 130.914C13.1751 131.637 12.7486 132.428 12.4331 133.208C13.3666 132.299 14.411 131.326 15.3945 130.28Z" fill="#0F172A"/>
<path fill-rule="evenodd" clip-rule="evenodd" d="M386.163 177.82C368.294 174.376 351.874 170.982 336.41 167.753C330.45 176.552 324.366 184.955 318.67 193.972C333.671 197.794 350.221 202.719 368.546 207.736C374.508 197.352 380.288 187.529 386.165 177.82H386.163Z" fill="#0F172A"/>
<path fill-rule="evenodd" clip-rule="evenodd" d="M283.113 167.884C270.639 165.351 259.664 162.855 248.74 160.967C243.383 167.608 237.55 174.487 231.733 181.699C242.391 184.663 253.577 187.845 265.599 191.366C271.2 183.457 277.297 175.333 283.113 167.882V167.884Z" fill="#0F172A"/>
<path fill-rule="evenodd" clip-rule="evenodd" d="M268.436 116.193C258.501 115.828 249.206 115.278 240.237 114.842C235.191 119.886 230.251 124.806 225.503 129.918C234.203 130.641 243.442 131.56 253.27 132.876C258.175 127.114 263.071 121.535 268.436 116.193Z" fill="#0F172A"/>
<path fill-rule="evenodd" clip-rule="evenodd" d="M321.225 282C308.489 275.816 296.571 269.967 285.348 264.33C282.141 270.102 278.927 275.988 275.75 282H321.222H321.225Z" fill="#0F172A"/>
<path fill-rule="evenodd" clip-rule="evenodd" d="M277.723 260.71C263.101 253.591 250.218 246.728 237.613 240.586C231 251.059 224.226 262.323 217.485 273.565C221.611 276.359 225.81 279.16 230.117 282H266.374C270.214 274.724 273.99 267.653 277.723 260.71Z" fill="#0F172A"/>
<path fill-rule="evenodd" clip-rule="evenodd" d="M231.781 237.83C220.368 232.702 209.833 227.939 200.154 223.218C193.918 231.886 187.275 241.19 181.276 250.79C190.704 256.77 200.846 262.906 211.998 269.515C218.441 258.444 225.166 248.159 231.781 237.83Z" fill="#0F172A"/>
<path fill-rule="evenodd" clip-rule="evenodd" d="M194.856 221.903C185.427 217.488 176.835 213.629 168.688 209.941C163.072 217.249 157.147 224.809 151.191 232.499C159.014 237.377 167.578 242.754 176.597 248.411C182.786 238.869 188.754 230.428 194.856 221.901V221.903Z" fill="#0F172A"/>
<path fill-rule="evenodd" clip-rule="evenodd" d="M163.664 207.252C156.135 204.074 149.026 200.976 142.294 197.893C136.922 204.195 131.525 210.846 126.123 217.68C132.496 221.72 139.165 225.58 146.446 229.433C152.088 222.126 157.921 214.649 163.664 207.254V207.252Z" fill="#0F172A"/>
<path fill-rule="evenodd" clip-rule="evenodd" d="M138.401 196.088C132.283 192.922 126.425 190.586 120.613 188.271C115.556 194.164 110.367 200.185 105.034 206.27C110.53 209.093 116.277 212.37 122.069 216.01C127.435 209.276 133.04 202.525 138.401 196.088Z" fill="#0F172A"/>
<path fill-rule="evenodd" clip-rule="evenodd" d="M118.07 187.624C112.906 185.335 107.808 183.183 102.845 181.279C98.4494 186.355 93.7995 191.414 89.2104 196.474C93.7168 199.028 98.4886 201.778 103.328 204.726C108.306 198.933 113.333 193.136 118.067 187.624H118.07Z" fill="#0F172A"/>
<path fill-rule="evenodd" clip-rule="evenodd" d="M85.2676 173.701C81.166 172.338 77.5845 170.81 74.0268 169.307C70.1994 173.253 66.2196 177.398 62.5532 181.304C65.7845 183.212 68.9265 185.266 72.7822 187.075C76.8251 182.623 81.0028 178.126 85.2676 173.699V173.701Z" fill="#0F172A"/>
<path fill-rule="evenodd" clip-rule="evenodd" d="M72.1363 168.601C68.681 167.103 65.5607 165.611 62.4905 164.508C58.9263 168.048 55.6276 171.496 51.9395 175.324C54.7507 176.998 57.6447 178.615 60.6366 180.467C64.5554 176.447 68.2371 172.491 72.1363 168.601Z" fill="#0F172A"/>
<path fill-rule="evenodd" clip-rule="evenodd" d="M60.9608 163.956C58.1604 162.75 55.6189 161.497 52.9817 160.451C49.633 163.732 46.306 166.952 43.3271 170.201C45.5009 171.667 48.0576 173.072 50.5773 174.58C54.1545 170.956 57.5772 167.445 60.9586 163.956H60.9608Z" fill="#0F172A"/>
<path fill-rule="evenodd" clip-rule="evenodd" d="M51.0602 159.994C48.5056 158.944 46.2144 157.956 43.995 156.822C41.3403 159.448 38.1896 162.532 35.4937 165.356C37.4172 166.63 39.6018 167.898 41.8103 169.334C44.7957 166.162 48.003 163.038 51.0602 159.994Z" fill="#0F172A"/>
<path fill-rule="evenodd" clip-rule="evenodd" d="M42.7677 156.249C40.6353 155.381 38.5095 154.523 36.6382 153.649C34.0358 156.178 31.5335 158.678 28.9463 161.149C30.5848 162.282 32.4756 163.328 34.2599 164.727C37.0777 161.814 39.8128 159.033 42.7677 156.251V156.249Z" fill="#0F172A"/>
<path fill-rule="evenodd" clip-rule="evenodd" d="M36.0921 153.167C34.2317 152.356 32.6215 151.451 30.8438 150.718C28.5917 152.83 26.2069 155.154 23.8047 157.436C25.2887 158.455 26.7226 159.604 28.3437 160.775C30.8677 158.233 33.4897 155.746 36.0921 153.167Z" fill="#0F172A"/>
<path fill-rule="evenodd" clip-rule="evenodd" d="M30.0753 150.004C28.661 149.047 27.2575 148.147 25.8584 147.472C23.5519 149.687 21.4652 151.7 19.3633 153.752C20.4621 154.834 21.6872 155.839 22.9797 156.909C25.3819 154.547 27.7645 152.296 30.0753 150.002V150.004Z" fill="#0F172A"/>
<path fill-rule="evenodd" clip-rule="evenodd" d="M25.0448 146.988C23.7719 146.354 22.5642 145.689 21.535 144.856C19.5811 146.749 17.7968 148.46 15.6992 150.509C16.6044 151.43 17.5161 152.33 18.5497 153.259C20.6494 151.262 22.734 149.297 25.0448 146.988Z" fill="#0F172A"/>
<path fill-rule="evenodd" clip-rule="evenodd" d="M219.909 140.031C211.593 138.984 203.668 138.091 195.976 136.989C191.178 142.258 186.346 147.338 181.258 152.626C188.589 154.041 196.392 155.376 204.704 157.254C209.809 151.362 214.926 145.689 219.911 140.031H219.909Z" fill="#0F172A"/>
<path fill-rule="evenodd" clip-rule="evenodd" d="M65.5802 112.906C63.3172 112.922 61.1718 112.926 59.1438 112.958C56.7677 115.137 54.3176 117.263 52.0264 119.379C54.0065 119.348 55.7232 119.651 57.8905 119.722C60.3928 117.434 62.9364 115.151 65.5823 112.904L65.5802 112.906Z" fill="#0F172A"/>
<path fill-rule="evenodd" clip-rule="evenodd" d="M65.2231 106.136C63.1712 106.364 61.2259 106.536 59.3416 106.677C57.0351 108.658 54.8309 110.562 52.6724 112.432C54.4066 112.442 56.1974 112.422 58.0447 112.355C60.3599 110.338 62.8208 108.21 65.2231 106.136Z" fill="#0F172A"/>
<path fill-rule="evenodd" clip-rule="evenodd" d="M459.332 282C453.268 279.66 447.343 277.356 441.564 275.079C440.593 277.352 439.64 279.66 438.7 282H459.334H459.332Z" fill="#0F172A"/>
<path fill-rule="evenodd" clip-rule="evenodd" d="M215.446 90.3105C208.274 90.6533 201.464 90.9545 194.977 91.2358C190.978 94.8656 187.02 98.5469 182.938 102.062C189.427 102.097 195.92 102.014 202.904 101.927C206.956 97.9961 211.245 94.1523 215.444 90.3105H215.446Z" fill="#0F172A"/>
<path fill-rule="evenodd" clip-rule="evenodd" d="M354.707 241.646C336.456 234.819 319.719 228.782 303.791 223.2C297.585 233.693 290.942 244.969 284.884 257.049C300.52 264.527 316.899 272.119 335.209 280.243C341.399 267.116 348.086 254.111 354.705 241.646H354.707Z" fill="#0F172A"/>
<path fill-rule="evenodd" clip-rule="evenodd" d="M251.371 204.445C239.823 200.518 228.83 197.025 218.638 193.587C212.702 201.356 206.653 209.592 200.77 217.92C210.511 222.481 221.241 227.113 232.205 231.799C238.594 222.625 244.969 213.182 251.368 204.447L251.371 204.445Z" fill="#0F172A"/>
<path fill-rule="evenodd" clip-rule="evenodd" d="M181.293 182.417C173.314 179.946 166.034 177.689 159.101 175.365C154.075 181.028 148.815 187.18 143.77 193.504C150.371 196.421 157.597 199.516 164.893 202.713C170.168 195.688 175.849 188.803 181.295 182.417H181.293Z" fill="#0F172A"/>
<path fill-rule="evenodd" clip-rule="evenodd" d="M155.141 174.242C148.532 172.213 142.342 170.42 136.408 168.781C131.438 174.149 126.614 179.597 121.645 185.016C127.289 187.221 133.04 189.437 139.261 192.193C144.651 185.864 149.814 179.77 155.141 174.242Z" fill="#0F172A"/>
<path fill-rule="evenodd" clip-rule="evenodd" d="M133.852 168.185C128.351 166.562 123.014 164.965 117.776 163.343C113.413 168.074 109.049 172.724 104.588 177.549C109.412 179.524 114.506 181.741 119.689 183.877C124.541 178.526 129.332 173.238 133.85 168.183L133.852 168.185Z" fill="#0F172A"/>
<path fill-rule="evenodd" clip-rule="evenodd" d="M114.316 162.382C109.623 161.088 105.025 159.844 100.826 158.605C96.4389 163.077 92.2742 167.238 88.166 171.71C92.1044 173.131 96.3431 174.741 100.984 176.77C105.362 171.68 109.975 166.911 114.316 162.382Z" fill="#0F172A"/>
<path fill-rule="evenodd" clip-rule="evenodd" d="M98.7669 158.204C94.4999 157.129 90.6768 155.896 86.8342 154.886C83.0698 158.605 79.2315 162.603 75.6543 166.476C79.1249 167.865 82.6934 169.409 86.8363 170.695C90.6834 166.675 94.7676 162.322 98.7647 158.204H98.7669Z" fill="#0F172A"/>
<path fill-rule="evenodd" clip-rule="evenodd" d="M84.7888 154.284C81.1115 153.378 77.6496 152.593 74.3814 151.72C70.9326 155.161 67.3836 158.547 64.1089 161.918C67.1008 162.958 70.3799 164.184 73.6351 165.656C77.2754 161.755 81.0223 158.044 84.7888 154.284Z" fill="#0F172A"/>
<path fill-rule="evenodd" clip-rule="evenodd" d="M72.876 151.288C69.7601 150.503 66.7791 149.671 63.9265 148.76C60.7388 151.9 57.5206 155.031 54.5156 158.084C57.0266 159.185 59.7988 160.279 62.6449 161.304C66.0502 158.007 69.4163 154.617 72.8782 151.288H72.876Z" fill="#0F172A"/>
<path fill-rule="evenodd" clip-rule="evenodd" d="M61.97 148.445C59.211 147.68 56.7609 146.818 54.3935 146.137C51.4625 148.825 48.5772 151.581 45.7246 154.254C47.8244 155.445 50.2309 156.521 52.8355 157.484C55.9057 154.405 58.8911 151.437 61.9722 148.445H61.97Z" fill="#0F172A"/>
<path fill-rule="evenodd" clip-rule="evenodd" d="M52.653 146.005C50.3595 145.282 48.0792 144.674 45.8684 144.117C43.451 146.431 40.7833 148.96 38.3311 151.418C40.3177 152.167 42.2564 153.019 44.3845 153.851C47.0608 151.282 49.8373 148.698 52.653 146.003V146.005Z" fill="#0F172A"/>
<path fill-rule="evenodd" clip-rule="evenodd" d="M45.2657 143.696C43.3574 142.983 41.4644 142.323 39.5191 141.736C37.2083 143.926 34.7125 146.375 32.4321 148.586C34.1511 149.376 35.8179 150.218 37.613 151.031C40.124 148.598 42.7373 146.204 45.2679 143.698L45.2657 143.696Z" fill="#0F172A"/>
<path fill-rule="evenodd" clip-rule="evenodd" d="M38.6333 141.242C36.8774 140.644 35.302 140.115 33.6744 139.661C31.418 141.704 29.2073 143.701 27.04 145.829C28.4936 146.469 29.897 147.244 31.3658 148.092C33.7658 145.841 36.1484 143.511 38.6312 141.242H38.6333Z" fill="#0F172A"/>
<path fill-rule="evenodd" clip-rule="evenodd" d="M166.464 134.217C160.232 133.635 154.233 133.193 148.48 132.616C144.226 136.807 139.887 141.098 135.56 145.33C141.11 146.182 146.652 147.203 152.876 148.356C157.415 143.551 161.906 138.772 166.464 134.217Z" fill="#0F172A"/>
<path fill-rule="evenodd" clip-rule="evenodd" d="M145.867 132.236C140.443 131.612 135.142 131.19 130.381 130.609C126.212 134.524 122.089 138.529 118.218 142.45C122.931 143.286 127.794 144.13 133.047 144.899C137.216 140.791 141.611 136.413 145.867 132.236Z" fill="#0F172A"/>
<path fill-rule="evenodd" clip-rule="evenodd" d="M128.018 130.37C123.07 129.934 118.633 129.547 114.329 129.169C110.602 132.632 106.692 136.345 102.971 139.902C107.109 140.615 111.389 141.336 115.896 142.21C119.817 138.164 123.953 134.17 128.018 130.37Z" fill="#0F172A"/>
<path fill-rule="evenodd" clip-rule="evenodd" d="M112.299 128.954C108.086 128.586 104.087 128.362 100.268 128.039C96.7717 131.269 93.0531 134.841 89.6782 138.019C93.3142 138.58 97.1264 138.996 101.032 139.558C104.598 136.153 108.574 132.44 112.301 128.954H112.299Z" fill="#0F172A"/>
<path fill-rule="evenodd" clip-rule="evenodd" d="M98.3993 127.914C94.7133 127.54 91.2688 127.082 87.8112 126.957C84.5626 129.915 81.2356 132.994 77.9521 136.176C81.0507 136.666 84.3493 137.226 87.907 137.831C91.3297 134.486 94.9591 131.138 98.3993 127.914Z" fill="#0F172A"/>
<path fill-rule="evenodd" clip-rule="evenodd" d="M86.2097 126.906C82.9894 126.624 80.0192 126.365 77.0056 126.183C73.8353 128.986 70.6497 131.871 67.895 134.55C70.5366 135.033 73.3653 135.532 76.4899 135.891C79.6689 132.786 82.8327 129.854 86.2076 126.906H86.2097Z" fill="#0F172A"/>
<path fill-rule="evenodd" clip-rule="evenodd" d="M75.6502 126.09C72.7628 125.82 69.9493 125.648 67.4296 125.398C64.5161 127.994 61.6482 130.671 58.813 133.256C61.1869 133.766 63.909 134.025 66.4657 134.37C69.4554 131.661 72.4168 128.893 75.6502 126.092V126.09Z" fill="#0F172A"/>
<path fill-rule="evenodd" clip-rule="evenodd" d="M65.9779 125.439C63.4168 125.231 61.032 125.023 58.7713 124.831C56.2951 127.177 53.6861 129.537 51.0576 131.835C53.2183 132.168 55.5096 132.673 57.692 133.119C60.4141 130.529 63.1231 128.071 65.9779 125.439Z" fill="#0F172A"/>
<path fill-rule="evenodd" clip-rule="evenodd" d="M57.3857 124.695C55.1967 124.554 53.2406 124.321 51.2366 124.231C48.8496 126.306 46.4517 128.464 44.043 130.653C45.8925 130.966 47.6332 131.344 49.6046 131.642C52.1766 129.337 54.8464 126.982 57.3857 124.693V124.695Z" fill="#0F172A"/>
<path fill-rule="evenodd" clip-rule="evenodd" d="M50.0876 124.045C48.2033 123.837 46.5496 123.65 44.7914 123.51C42.5089 125.549 40.2133 127.524 37.9634 129.646C39.5083 129.989 41.1707 130.238 42.8962 130.639C45.2505 128.433 47.705 126.212 50.0898 124.045H50.0876Z" fill="#0F172A"/>
<path fill-rule="evenodd" clip-rule="evenodd" d="M44.0514 123.472C42.463 123.232 41.1052 122.925 39.6952 122.682C37.6324 124.57 35.5044 126.484 33.5874 128.257C34.832 128.596 36.2507 128.923 37.5606 129.323C39.6974 127.367 41.9364 125.382 44.0514 123.472Z" fill="#0F172A"/>
<path fill-rule="evenodd" clip-rule="evenodd" d="M38.797 122.515C37.561 122.291 36.2163 122.224 35.0979 121.948C33.1439 123.712 31.1769 125.459 29.373 127.143C30.3805 127.454 31.3923 127.793 32.576 128.084C34.5474 126.317 36.6798 124.486 38.7991 122.515H38.797Z" fill="#0F172A"/>
<path fill-rule="evenodd" clip-rule="evenodd" d="M24.7444 123.577C24.3636 123.28 24.0438 122.818 23.7718 122.489C22.4728 123.747 21.1737 124.855 20.0901 125.968C20.0706 126.515 20.2794 126.999 20.5427 127.466C21.9658 126.177 23.2735 124.944 24.7423 123.577H24.7444Z" fill="#0F172A"/>
<path fill-rule="evenodd" clip-rule="evenodd" d="M50.0791 113.306C53.1863 112.703 56.2391 112.099 59.7445 111.465C60.5692 111.081 61.346 110.904 62.3382 110.565C58.6174 111.398 55.2317 112.057 51.9591 112.765C51.1932 113.238 50.6818 113.02 50.0791 113.306Z" fill="#0F172A"/>
<path fill-rule="evenodd" clip-rule="evenodd" d="M71.2329 110.13C75.6326 109.781 80.0846 109.791 84.9303 109.589C85.8399 109.512 86.8669 109.443 87.9287 109.147C82.8676 109.589 78.2307 109.49 73.757 109.736C72.7038 110.095 71.9009 109.966 71.2329 110.132V110.13Z" fill="#0F172A"/>
<path fill-rule="evenodd" clip-rule="evenodd" d="M159.425 118.501C153.813 118.174 148.245 117.992 143.217 117.694C139.187 121.386 135.205 125.14 131.319 128.962C136.291 129.42 141.589 129.862 146.866 130.422C151.026 126.309 155.33 122.228 159.423 118.499L159.425 118.501Z" fill="#0F172A"/>
<path fill-rule="evenodd" clip-rule="evenodd" d="M140.771 117.565C135.749 117.492 130.981 117.399 126.505 117.223C122.874 120.634 118.879 124.207 115.36 127.613C119.595 127.993 124.195 128.288 128.945 128.643C132.792 124.924 136.845 121.165 140.771 117.567V117.565Z" fill="#0F172A"/>
<path fill-rule="evenodd" clip-rule="evenodd" d="M124.349 117.208C119.915 117.109 115.748 117.115 111.638 117.025C108.148 120.067 104.666 123.302 101.285 126.635C105.145 126.827 109.138 127.083 113.3 127.528C116.764 124.138 120.705 120.55 124.352 117.206L124.349 117.208Z" fill="#0F172A"/>
<path fill-rule="evenodd" clip-rule="evenodd" d="M109.723 116.916C105.808 116.842 102.159 116.906 98.6168 116.801C95.268 119.739 92.0107 122.667 88.8447 125.574C92.1804 125.709 95.6706 126.093 99.4088 126.464C102.816 123.282 106.296 119.995 109.723 116.916Z" fill="#0F172A"/>
<path fill-rule="evenodd" clip-rule="evenodd" d="M96.9087 116.728C93.399 116.789 90.344 116.639 87.1432 116.667C83.9881 119.454 80.9201 122.137 77.9478 124.867C80.9005 125.111 83.9816 125.341 87.2455 125.527C90.4092 122.569 93.6274 119.771 96.9087 116.728Z" fill="#0F172A"/>
<path fill-rule="evenodd" clip-rule="evenodd" d="M85.6789 116.567C82.5456 116.536 79.706 116.526 76.8708 116.433C73.9638 119 71.1525 121.538 68.3281 124.128C70.8609 124.576 73.6091 124.689 76.4856 124.871C79.5711 122.067 82.4672 119.359 85.6811 116.567H85.6789Z" fill="#0F172A"/>
<path fill-rule="evenodd" clip-rule="evenodd" d="M75.548 116.462C72.9021 116.462 70.2126 116.571 67.9192 116.513C65.2646 118.786 62.5447 121.219 59.8574 123.549C62.1661 123.674 64.5422 123.85 67.051 124.122C69.7644 121.548 72.6953 119.026 75.548 116.462Z" fill="#0F172A"/>
<path fill-rule="evenodd" clip-rule="evenodd" d="M173.486 104.811C167.583 104.868 161.886 104.945 156.564 105.066C152.68 108.629 148.807 112.054 144.981 115.587C150.217 115.747 155.724 115.987 161.253 116.205C165.398 112.373 169.556 108.488 173.486 104.813V104.811Z" fill="#0F172A"/>
<path fill-rule="evenodd" clip-rule="evenodd" d="M154.079 105.227C148.883 105.242 143.854 105.45 139.176 105.591C135.499 108.862 131.795 112.133 128.229 115.383C132.779 115.341 137.655 115.409 142.568 115.617C146.324 112.003 150.162 108.617 154.079 105.227Z" fill="#0F172A"/>
<path fill-rule="evenodd" clip-rule="evenodd" d="M136.811 105.626C132.205 105.709 127.744 105.876 123.532 106.048C120.174 109.002 116.756 112.049 113.333 115.253C117.369 115.279 121.601 115.352 125.966 115.414C129.524 112.117 133.227 108.784 136.809 105.626H136.811Z" fill="#0F172A"/>
<path fill-rule="evenodd" clip-rule="evenodd" d="M121.597 106.068C117.406 106.286 113.787 106.354 109.964 106.552C106.57 109.439 103.489 112.21 100.227 115.095C103.87 115.111 107.575 115.075 111.544 115.147C114.751 112.08 118.176 109.032 121.597 106.068Z" fill="#0F172A"/>
<path fill-rule="evenodd" clip-rule="evenodd" d="M108.004 106.702C104.523 106.764 101.113 106.853 97.7206 107.035C94.5786 109.807 91.5715 112.438 88.6558 115.028C91.6955 115.168 94.9659 115.188 98.5257 115.117C101.674 112.22 104.825 109.506 108.004 106.702Z" fill="#0F172A"/>
<path fill-rule="evenodd" clip-rule="evenodd" d="M96.0541 107.083C92.7358 107.291 89.8179 107.406 87.0175 107.509C84.0517 110.009 81.0185 112.532 78.3008 114.977C81.0729 115.018 83.9712 115.101 87.1502 115.028C90.0681 112.448 93.023 109.823 96.0541 107.083Z" fill="#0F172A"/>
<path fill-rule="evenodd" clip-rule="evenodd" d="M85.272 107.81C82.3215 108.033 79.7104 108.158 77.0492 108.303C74.3358 110.653 71.4984 113.076 68.8765 115.501C71.3809 115.325 74.016 115.293 76.7663 115.19C79.4928 112.844 82.204 110.5 85.272 107.812V107.81Z" fill="#0F172A"/>
<path fill-rule="evenodd" clip-rule="evenodd" d="M166.59 93.7998C161.188 94.0812 156.074 94.2733 151.131 94.6419C147.466 97.8397 143.928 100.935 140.351 104.267C145.229 103.966 150.108 103.934 155.395 103.794C158.988 100.455 162.739 97.1225 166.588 93.7998H166.59Z" fill="#0F172A"/>
<path fill-rule="evenodd" clip-rule="evenodd" d="M148.657 94.9609C143.817 95.163 139.37 95.5434 134.883 95.9754C131.473 98.8463 128.17 101.773 124.789 104.753C129.147 104.42 133.39 104.41 138.104 104.275C141.655 101.097 145.223 97.8636 148.657 94.9609Z" fill="#0F172A"/>
<path fill-rule="evenodd" clip-rule="evenodd" d="M132.811 96.1357C128.551 96.4369 124.602 96.8213 120.602 97.2175C117.365 99.9003 114.238 102.694 110.98 105.496C114.836 105.137 118.622 105.064 122.857 104.778C126.031 101.971 129.406 99.074 132.811 96.1357Z" fill="#0F172A"/>
<path fill-rule="evenodd" clip-rule="evenodd" d="M118.655 97.3467C114.886 97.6538 111.337 97.84 107.814 98.1471C104.772 100.747 101.82 103.316 98.8018 105.952C102.192 105.791 105.536 105.654 109.29 105.5C112.497 102.734 115.469 100.045 118.655 97.3467Z" fill="#0F172A"/>
<path fill-rule="evenodd" clip-rule="evenodd" d="M106.063 98.3408C102.882 98.533 99.7139 98.8084 96.4544 99.2304C93.593 101.622 90.7273 104.114 87.9443 106.5C90.9079 106.369 93.9803 106.1 97.1398 106.026C100.219 103.389 103.18 100.889 106.063 98.3408Z" fill="#0F172A"/>
<path fill-rule="evenodd" clip-rule="evenodd" d="M86.7171 101.091C83.9189 101.408 81.2382 101.699 78.7772 101.897C76.2488 104.023 73.5506 106.276 70.9482 108.513C73.4223 108.311 75.9703 108.257 78.5117 108.113C81.0946 105.792 83.8863 103.449 86.7171 101.093V101.091Z" fill="#0F172A"/>
<path fill-rule="evenodd" clip-rule="evenodd" d="M77.2667 102.017C74.8688 102.209 72.5819 102.349 70.3625 102.605C68.0386 104.654 65.6951 106.568 63.4604 108.569C65.4231 108.543 67.6643 108.396 69.8033 108.335C72.1924 106.296 74.7839 104.075 77.2667 102.017Z" fill="#0F172A"/>
<path fill-rule="evenodd" clip-rule="evenodd" d="M160.746 84.7314C155.885 85.2565 151.198 85.7617 146.474 86.2769C143.128 89.126 139.862 91.888 136.424 94.7847C141.059 94.2339 145.408 93.9941 150.367 93.5048C153.755 90.505 157.276 87.6797 160.746 84.7314Z" fill="#0F172A"/>
<path fill-rule="evenodd" clip-rule="evenodd" d="M144.303 86.4844C139.975 86.9163 135.627 87.477 131.495 87.9506C128.429 90.5976 125.235 93.2704 122.034 96.0106C126.081 95.6005 129.989 95.3132 134.356 94.9803C137.788 92.0381 141.065 89.3018 144.303 86.4824V86.4844Z" fill="#0F172A"/>
<path fill-rule="evenodd" clip-rule="evenodd" d="M129.517 88.1631C125.675 88.5633 121.906 89.0368 118.042 89.5678C115.098 92.096 112.284 94.4102 109.209 96.9998C112.728 96.6927 116.32 96.4331 120.1 96.2033C123.24 93.4473 126.486 90.7111 129.517 88.1631Z" fill="#0F172A"/>
<path fill-rule="evenodd" clip-rule="evenodd" d="M116.36 89.8076C112.948 90.2851 109.538 90.6972 106.3 91.0975C103.487 93.4592 100.545 95.8289 97.749 98.1549C100.961 97.8538 104.122 97.5368 107.456 97.192C110.539 94.6381 113.457 92.2209 116.36 89.8076Z" fill="#0F172A"/>
<path fill-rule="evenodd" clip-rule="evenodd" d="M95.8642 93.1299C92.9289 93.5618 90.2112 93.859 87.6588 94.1602C85.0216 96.3693 82.3605 98.5448 79.8604 100.77C82.3714 100.53 84.9411 100.292 87.7916 99.9595C90.444 97.7028 93.0856 95.4877 95.8642 93.1319V93.1299Z" fill="#0F172A"/>
<path fill-rule="evenodd" clip-rule="evenodd" d="M85.766 94.8242C83.168 95.1413 80.8528 95.4741 78.4919 95.8744C76.0375 97.8755 73.6288 99.8568 71.0503 101.989C73.2654 101.723 75.6611 101.557 78.0568 101.375C80.5656 99.1792 83.1158 97.0057 85.7682 94.8223L85.766 94.8242Z" fill="#0F172A"/>
<path fill-rule="evenodd" clip-rule="evenodd" d="M171.175 74.2041C166.051 74.9392 161.212 75.595 156.559 76.3301C153.217 78.8741 150.047 81.4895 146.618 84.3545C151.307 83.6986 156.042 83.231 160.879 82.6584C164.327 79.7419 167.733 76.974 171.173 74.2021L171.175 74.2041Z" fill="#0F172A"/>
<path fill-rule="evenodd" clip-rule="evenodd" d="M154.351 76.543C149.771 77.2642 145.397 77.8269 141.106 78.5065C138.134 81.0287 135.02 83.4618 131.865 86.1048C136.028 85.554 140.325 85.0706 144.671 84.4663C147.854 81.8192 151.035 79.2396 154.351 76.543Z" fill="#0F172A"/>
<path fill-rule="evenodd" clip-rule="evenodd" d="M166.214 67.1689C161.555 67.9199 157.09 68.7441 152.726 69.4891C149.586 72.0311 146.515 74.4701 143.441 76.9171C147.56 76.2711 152.031 75.647 156.723 74.9179C159.821 72.3957 163.055 69.7883 166.216 67.1689H166.214Z" fill="#0F172A"/>
<path fill-rule="evenodd" clip-rule="evenodd" d="M216.887 69.8379C210.185 70.6839 203.944 71.4705 198.008 72.0352C194.059 75.1478 190.443 78.3417 186.944 81.3375C192.706 80.8957 198.842 80.2616 205.348 79.6217C209.049 76.3901 212.898 73.115 216.884 69.8399L216.887 69.8379Z" fill="#0F172A"/>
<path fill-rule="evenodd" clip-rule="evenodd" d="M36.0331 130.233C34.61 129.874 33.3066 129.494 32.062 129.187C30.1298 130.934 28.1323 132.717 26.2393 134.679C27.201 135.136 28.3347 135.687 29.5314 136.187C31.5985 134.279 33.8223 132.192 36.0331 130.233Z" fill="#0F172A"/>
<path fill-rule="evenodd" clip-rule="evenodd" d="M41.3645 131.465C39.6955 131.106 38.1484 130.716 36.6623 130.363C34.3928 132.463 32.2256 134.482 30.1606 136.4C31.3618 137.003 32.6847 137.565 34.1295 138.142C36.4795 135.911 38.9296 133.629 41.3645 131.465Z" fill="#0F172A"/>
<path fill-rule="evenodd" clip-rule="evenodd" d="M47.5591 132.751C45.6443 132.44 43.9035 132.008 42.2259 131.57C39.6801 133.926 37.23 136.157 34.9409 138.337C36.5076 138.8 38.0829 139.345 39.9521 139.777C42.4652 137.427 45.0785 135.065 47.5612 132.751H47.5591Z" fill="#0F172A"/>
<path fill-rule="evenodd" clip-rule="evenodd" d="M55.4684 134.195C53.2294 133.753 51.0557 133.286 48.8972 132.973C46.3579 135.277 43.6967 137.861 41.127 140.3C43.07 140.783 44.9653 141.49 46.9258 142.192C49.7153 139.446 52.6615 136.836 55.4684 134.193V134.195Z" fill="#0F172A"/>
<path fill-rule="evenodd" clip-rule="evenodd" d="M64.0613 135.495C61.4437 135.137 58.8391 134.778 56.6458 134.32C53.7823 136.92 50.8383 139.563 47.9922 142.287C50.2051 142.947 52.5399 143.52 54.9508 144.144C57.836 141.314 60.8736 138.455 64.0613 135.495Z" fill="#0F172A"/>
<path fill-rule="evenodd" clip-rule="evenodd" d="M73.8618 137.207C70.8481 136.781 68.0804 136.301 65.4388 135.792C62.1401 138.855 59.0503 141.797 56.165 144.585C58.589 145.219 61.2132 146.01 63.907 146.753C67.2905 143.482 70.4195 140.476 73.8618 137.205V137.207Z" fill="#0F172A"/>
<path fill-rule="evenodd" clip-rule="evenodd" d="M84.926 139.333C81.4989 138.798 78.3155 138.194 75.2105 137.617C71.8901 140.847 68.587 143.955 65.2622 147.169C68.1083 148.017 71.1481 148.843 74.2618 149.676C77.7824 146.165 81.4489 142.646 84.926 139.333Z" fill="#0F172A"/>
<path fill-rule="evenodd" clip-rule="evenodd" d="M98.9239 141.19C94.9898 140.472 91.2233 139.935 87.7201 139.468C84.1255 142.745 80.4786 146.331 76.9058 149.832C80.2197 150.555 83.7969 151.334 87.3654 152.412C91.2951 148.465 95.0355 144.8 98.9261 141.19H98.9239Z" fill="#0F172A"/>
<path fill-rule="evenodd" clip-rule="evenodd" d="M113.318 143.519C108.885 142.729 104.521 141.835 100.691 141.144C96.7655 144.914 92.7923 148.631 89.041 152.485C92.8206 153.541 96.8199 154.694 101.185 155.637C105.184 151.569 109.216 147.622 113.318 143.521V143.519Z" fill="#0F172A"/>
<path fill-rule="evenodd" clip-rule="evenodd" d="M130.427 146.313C125.294 145.496 120.202 144.789 115.804 143.63C111.664 147.807 107.431 152.019 103.504 156.12C107.869 157.275 112.453 158.45 117.308 159.568C121.747 155.013 125.996 150.701 130.429 146.313H130.427Z" fill="#0F172A"/>
<path fill-rule="evenodd" clip-rule="evenodd" d="M149.812 150.062C143.78 148.922 138.234 147.904 133.021 146.822C128.545 151.32 124.023 155.814 119.606 160.499C125.046 161.876 130.063 163.594 135.821 164.939C140.577 159.937 145.28 154.956 149.812 150.062Z" fill="#0F172A"/>
<path fill-rule="evenodd" clip-rule="evenodd" d="M172.217 154.751C165.163 153.487 158.912 152.292 152.608 151.038C147.904 155.978 143.21 161.006 138.51 165.922C144.396 167.701 150.63 169.443 157.171 171.226C162.345 165.458 167.263 160.035 172.217 154.751Z" fill="#0F172A"/>
<path fill-rule="evenodd" clip-rule="evenodd" d="M405.424 126.199C400.983 122.953 396.635 119.678 392.662 116.688C386.243 120.011 379.852 123.106 373.398 126.615C377 130.053 380.566 133.657 384.876 137.344C391.835 133.583 398.789 129.844 405.421 126.199H405.424Z" fill="#0F172A"/>
<path fill-rule="evenodd" clip-rule="evenodd" d="M187.579 119.538C185.813 117.911 184.087 116.397 182.292 115.102C179.792 116.702 177.187 118.408 174.615 120.031C176.212 121.571 177.72 123.225 179.341 125.085C182.109 123.193 184.87 121.315 187.582 119.538H187.579Z" fill="#0F172A"/>
<path fill-rule="evenodd" clip-rule="evenodd" d="M117.658 59.4415C116.971 58.4826 116.34 57.484 115.759 56.4834C113.509 58.1854 111.107 60.028 108.748 61.8231C109.116 62.9742 109.636 64.0263 110.223 65.1537C112.691 63.2576 115.2 61.3297 117.656 59.4415H117.658Z" fill="#0F172A"/>
<path fill-rule="evenodd" clip-rule="evenodd" d="M482.912 225.802C477.362 221.829 472.126 218.023 467.041 214.673C460.42 216.535 453.923 218.741 447.105 220.845C452.049 224.506 456.915 228.463 461.915 232.727C469.026 230.282 476.3 228.079 482.915 225.8L482.912 225.802Z" fill="#0F172A"/>
<path fill-rule="evenodd" clip-rule="evenodd" d="M133.503 72.3284C132.957 71.7796 132.526 71.2446 132.098 70.7295C130.635 71.7003 129.165 72.6534 127.744 73.6044C128.072 74.1928 128.412 74.8843 128.792 75.4629C130.366 74.4227 131.88 73.3904 133.503 72.3264V72.3284Z" fill="#0F172A"/>
<path fill-rule="evenodd" clip-rule="evenodd" d="M183.889 47.2189C182.571 46.7058 181.322 46.252 180.086 45.834C178.221 46.9931 176.358 48.1918 174.452 49.4558C175.492 50.0284 176.635 50.5377 177.934 51.1955C179.875 49.8105 181.883 48.5167 183.889 47.2209V47.2189Z" fill="#0F172A"/>
<path fill-rule="evenodd" clip-rule="evenodd" d="M464.334 94.2375C459.108 92.272 454.249 90.5562 449.632 88.9395C443.661 91.2021 438.008 93.3697 432.599 95.668C436.77 97.5721 441.163 99.5217 446.078 101.919C452.389 99.2305 458.52 96.5636 464.334 94.2375Z" fill="#0F172A"/>
<path fill-rule="evenodd" clip-rule="evenodd" d="M162.515 44.1558C161.719 43.813 161.122 43.3632 160.491 43.0244C158.973 43.9319 157.526 44.9562 156.063 45.9449C156.599 46.3788 157.093 46.892 157.739 47.2882C159.195 46.2718 160.853 45.1959 162.515 44.1558Z" fill="#0F172A"/>
<path fill-rule="evenodd" clip-rule="evenodd" d="M129.289 36.67C128.867 36.3886 128.405 36.1726 127.99 35.9131C126.895 36.6878 125.696 37.4882 124.646 38.2273C125.009 38.5284 125.324 38.8336 125.649 39.1823C126.848 38.3561 128.092 37.514 129.289 36.67Z" fill="#0F172A"/>
<path fill-rule="evenodd" clip-rule="evenodd" d="M49.0646 112.963C48.8861 112.547 48.6511 112.131 48.5293 111.73C47.6546 112.277 46.8386 112.901 45.9639 113.472C46.0313 113.956 46.1532 114.413 46.275 114.871C47.2607 114.231 48.1376 113.597 49.0646 112.963Z" fill="#0F172A"/>
<path fill-rule="evenodd" clip-rule="evenodd" d="M486.927 158.736C483.206 157.109 480.195 155.574 477.018 154.104C472.353 155.31 467.886 156.402 463.434 157.583C466.164 159.091 469.256 160.848 472.529 162.512C477.405 161.3 482.181 159.98 486.927 158.736Z" fill="#0F172A"/>
<path fill-rule="evenodd" clip-rule="evenodd" d="M213.111 39.3495C211.806 38.9969 210.472 38.7551 209.343 38.3945C207.526 39.4783 205.607 40.6037 203.888 41.6479C204.982 42.0877 206.007 42.4622 207.217 42.8743C209.025 41.739 211.14 40.4868 213.111 39.3495Z" fill="#0F172A"/>
<path fill-rule="evenodd" clip-rule="evenodd" d="M165.002 12.558C164.173 12.4173 163.344 12.2964 162.53 12.2588C161.164 13.0513 159.862 13.9568 158.555 14.8246C159.329 14.9474 160.108 15.0822 160.889 15.2387C162.286 14.3035 163.644 13.4139 165.002 12.558Z" fill="#0F172A"/>
<path fill-rule="evenodd" clip-rule="evenodd" d="M144.361 45.3782C143.608 45.1602 142.866 45.0057 142.172 44.8115C141.004 45.5803 139.681 46.4243 138.454 47.1851C139.152 47.411 139.796 47.621 140.499 47.8509C141.822 47.0108 143.043 46.2202 144.363 45.3782H144.361Z" fill="#0F172A"/>
<path fill-rule="evenodd" clip-rule="evenodd" d="M17.3744 134.176C17.1612 133.859 17.0023 133.609 16.7869 133.292C16.0971 133.724 15.4096 134.16 14.7764 134.566C14.9309 134.893 15.0309 135.2 15.2464 135.466C15.9383 135.055 16.6868 134.614 17.3744 134.176Z" fill="#0F172A"/>
<path fill-rule="evenodd" clip-rule="evenodd" d="M126.621 63.0552C125.868 62.8293 125.163 62.5698 124.471 62.4033C123.37 63.0869 122.16 63.82 120.999 64.5015C121.697 64.7274 122.395 64.9652 123.046 65.2346C124.201 64.5154 125.413 63.7922 126.621 63.0552Z" fill="#0F172A"/>
<path fill-rule="evenodd" clip-rule="evenodd" d="M243.751 72.5106C242.117 72.1203 240.55 71.722 239.044 71.3535C237.062 72.3303 235.132 73.2595 233.041 74.2819C234.588 74.6049 236.107 75.0467 237.624 75.4568C239.595 74.4503 241.753 73.4517 243.751 72.5106Z" fill="#0F172A"/>
<path fill-rule="evenodd" clip-rule="evenodd" d="M12.098 127.326C11.8957 127.003 11.6324 126.723 11.4279 126.474C10.7512 126.868 10.1267 127.28 9.5 127.742C9.70236 128.017 9.90907 128.304 10.1114 128.625C10.7947 128.184 11.4757 127.742 12.098 127.326Z" fill="#0F172A"/>
<path fill-rule="evenodd" clip-rule="evenodd" d="M108.391 78.5273C107.693 78.3035 106.988 78.0082 106.346 77.7725C105.264 78.4322 104.29 79.0365 103.258 79.6805C103.846 79.9301 104.438 80.2115 105.086 80.5126C106.17 79.8271 107.258 79.2287 108.391 78.5254V78.5273Z" fill="#0F172A"/>
<path fill-rule="evenodd" clip-rule="evenodd" d="M117.256 52.3012C116.645 52.1566 116.046 52.1011 115.439 51.998C114.549 52.5528 113.616 53.173 112.719 53.6941C113.22 53.7931 113.829 53.9358 114.338 54.0943C115.326 53.4702 116.264 52.8679 117.256 52.3032V52.3012Z" fill="#0F172A"/>
<path fill-rule="evenodd" clip-rule="evenodd" d="M566 195.241C561.035 193.874 555.784 192.251 550.477 190.843C545.562 191.806 540.252 192.491 535.261 193.333C540.033 194.669 545.2 196.234 549.974 197.785C555.551 196.927 560.71 196.137 566 195.243V195.241Z" fill="#0F172A"/>
<path fill-rule="evenodd" clip-rule="evenodd" d="M184.4 20.7266C183.306 20.7662 182.32 20.7761 181.335 20.784C180.179 21.4557 178.974 22.1571 177.729 22.908C178.71 22.8664 179.609 22.9417 180.599 22.9338C181.844 22.1848 183.09 21.428 184.398 20.7266H184.4Z" fill="#0F172A"/>
<path fill-rule="evenodd" clip-rule="evenodd" d="M25.7219 131.284C25.3868 131.056 25.0517 130.82 24.8319 130.603C24.2074 130.967 23.5242 131.383 22.9541 131.716C23.1739 131.96 23.4502 132.168 23.7266 132.429C24.4098 132.007 25.0386 131.655 25.7219 131.286V131.284Z" fill="#0F172A"/>
<path fill-rule="evenodd" clip-rule="evenodd" d="M320.767 106.999C318.295 106.448 315.647 106.119 313.125 105.62C310.641 106.411 308.38 107.102 306.158 107.914C308.447 108.299 310.926 108.84 313.513 109.381C315.93 108.564 318.413 107.78 320.765 106.999H320.767Z" fill="#0F172A"/>
<path fill-rule="evenodd" clip-rule="evenodd" d="M312.329 148.049C310.099 146.775 307.893 145.507 305.673 144.403C302.566 145.495 299.398 146.779 296.208 148.017C298.273 149.275 300.325 150.502 302.398 151.932C305.856 150.498 309.131 149.295 312.329 148.047V148.049Z" fill="#0F172A"/>
<path fill-rule="evenodd" clip-rule="evenodd" d="M18.6757 141.673C18.4625 141.112 18.308 140.539 18.1513 140.05C17.2788 140.622 16.3453 141.256 15.4097 141.916C15.5032 142.489 15.599 143.139 15.7469 143.725C16.6869 143.05 17.6813 142.362 18.6757 141.671V141.673Z" fill="#0F172A"/>
<path fill-rule="evenodd" clip-rule="evenodd" d="M258.325 97.3587C256.315 96.3086 254.461 95.3714 252.74 94.458C250.094 95.7994 247.337 97.2239 244.582 98.6743C246.314 99.6471 247.861 100.816 249.791 101.821C252.72 100.317 255.516 98.8209 258.325 97.3587Z" fill="#0F172A"/>
</g>
<defs>
<clipPath id="clip0_464_2081">
<rect width="566" height="282" fill="white"/>
</clipPath>
</defs>
</svg>
