<svg width="348" height="363" viewBox="0 0 348 363" fill="none" xmlns="http://www.w3.org/2000/svg">
<path d="M243.307 111.67C243.908 115.134 232.835 124.927 229.921 127.554C227.972 128.848 225.367 131.087 222.934 132.775C216.398 137.309 212.071 139.005 204.853 142.044C188.933 148.747 161.741 148.563 150.124 161.711C148.295 163.782 147.518 167.022 147.952 169.749C149.748 181.041 169.661 183.862 178.775 187.695C185.326 190.45 190.304 191.916 196.412 196.321C203.839 201.553 208.85 209.371 210.152 218.462C215.289 254.317 176.592 272.334 147.68 279.117C141.977 280.455 136.367 281.091 130.686 282.016C145.271 285.602 148.163 287.556 164.31 288.203C164.386 293.032 164.417 297.861 164.401 302.69C145.445 301.571 129.287 298.114 112.346 289.096C115.407 279.038 119.437 268.953 122.756 258.955C124.05 255.056 125.562 250.465 127.255 246.8C139.941 245.421 168.465 242.834 170.885 226.348C172.991 211.996 147.277 207.525 138.161 202.541C131.84 199.085 125.754 196.141 121.329 190.027C117.118 184.696 115.52 175.726 116.676 169.301C123.491 131.401 183.199 136.596 211.755 127.765C226.717 123.138 230.919 120.897 243.307 111.67Z" fill="#05AB99"/>
<path d="M223.894 118.346C216.234 107.496 208.67 92.2171 210.97 78.6726C212.36 70.5036 216.99 63.241 223.808 58.5315C230.805 53.7111 239.427 51.8603 247.785 53.3852C256.01 54.8312 263.329 59.4716 268.144 66.2939C285.276 90.9525 258.556 123.616 242.119 141.168C239.78 138.642 232.408 130.742 230.692 128.06C233.631 125.461 244.798 115.775 244.23 112.306C253.855 102.813 266.145 84.8428 253.995 72.55C247.335 65.6707 236.77 65.7155 229.98 72.5197C223.682 78.831 223.622 89.7784 229.98 96.2123C233.167 99.4374 239.356 100.545 239.176 94.7076C238.242 93.3739 237.244 92.4347 236.143 91.249C228.79 83.3273 232.897 76.8831 242.249 74.9386C251.012 77.493 253.395 83.0485 250.548 91.5533C246.719 102.993 234.678 113.505 223.894 118.346Z" fill="#1B3558"/>
<path d="M279.008 182.847C283.712 182.962 288.418 182.965 293.122 182.858C292.322 188.946 292.047 194.679 290.945 200.888C287.719 219.049 279.618 237.379 268.682 252.222C249.179 278.535 220.05 296.058 187.665 300.959C183.699 301.846 178.165 302.059 174.021 302.304C174.102 297.698 174.001 292.793 173.986 288.163C198.263 287.271 221.509 278.125 239.884 262.235C263.884 241.543 276.672 214.239 279.008 182.847Z" fill="#1B3558"/>
<path d="M159.586 52.8473L163.218 52.6682L163.223 66.6892C138.83 67.7247 115.522 77.0617 97.1613 93.1533C73.3136 113.723 60.7723 141.069 58.457 172.177L48.2361 172.2C46.7479 172.262 46.3762 172.289 44.9311 171.975C43.9452 170.101 45.4085 160.892 45.7995 158.322C49.3265 135.087 59.3703 113.328 74.7652 95.5721C96.2557 70.6477 126.766 55.2796 159.586 52.8473Z" fill="#1B3558"/>
<path d="M152.009 76.157L152.302 76.1445L152.534 76.432C150.803 77.2145 148.846 77.9151 147.163 78.6122C134.229 83.973 114.455 104.714 109.691 118.024C127.484 123.047 147.799 127.422 166.353 126.457C162.89 127.499 157.133 128.261 153.272 129.393C150.69 130.15 141.685 132.911 139.84 133.039C130.392 133.694 114.283 128.752 105.398 125.964C95.8189 153.088 93.0487 170.07 97.1678 199.078C99.2557 209.399 101.272 216.969 104.917 226.836C102.693 228.131 99.3791 229.699 97.0172 230.908L96.3037 229.204C82.413 195.643 83.2405 156.175 97.1039 122.729C92.4103 120.89 88.9792 119.417 84.6602 116.846C86.59 114.222 88.1888 112.095 90.3172 109.618C93.82 111.359 97.3426 113.057 100.885 114.716C114.51 89.8522 122.812 80.6848 152.009 76.157Z" fill="#05AB99"/>
<path d="M125.147 225.716L125.946 225.963C125.053 228.214 124.203 230.492 123.422 232.784C116.119 254.197 107.294 275.347 100.352 296.864C96.6608 287.273 93.2478 276.316 90.4698 266.47C88.0302 264.951 64.0918 260.08 59.4258 258.765C67.81 254.895 76.9469 250.018 85.2495 245.795L125.147 225.716ZM78.3342 256.557L82.554 257.432C86.2557 258.304 91.0732 259.276 94.5082 260.701C96.2253 258.648 113.555 239.125 113.612 238.783L113.179 238.649C102.242 244.917 88.3699 250.592 78.3342 256.557Z" fill="#05AB99"/>
<path d="M238.468 176.314C238.648 178.934 238.678 180.343 238.515 182.961C241.23 182.933 244.45 182.821 247.12 182.962C247.35 198.37 244.006 217.116 238.685 231.526C243.498 233.68 247.598 235.495 252.185 238.065C251.308 239.744 248.248 243.582 246.964 245.272C243.135 243.368 239.276 241.525 235.389 239.743C230.793 249.016 223.327 263.711 214.542 269.504C209.7 272.697 193.224 278.129 187.387 278.667C187.415 278.556 197.464 273.228 199.755 271.549C212.055 262.528 220.089 249.959 226.981 236.639C224.362 235.766 220.565 234.957 217.809 234.286C218.339 231.584 218.607 227.922 218.889 225.111C222.938 226.395 226.139 227.086 230.402 228.602C237.178 207.522 238.249 198.271 238.468 176.314Z" fill="#1B3558"/>
<path d="M231.172 136.905C235.275 142.493 238.305 145.959 243.889 150.331C246.118 162.318 246.54 170.909 247.12 182.962C244.451 182.821 241.231 182.934 238.516 182.961C238.678 180.343 238.648 178.934 238.468 176.314C238.045 168.945 237.154 157.47 235.259 150.41C225.574 159.319 213.567 170.43 199.689 170.74C195.678 170.83 189.194 167.677 189.919 163.223C191.315 154.65 207.519 152.954 214.067 149.501C221.561 145.548 225.55 142.541 231.172 136.905Z" fill="#05AB99"/>
<path d="M44.377 182.933C49.207 182.844 53.6654 182.785 58.4903 182.945C59.348 204.458 66.2223 222.656 77.8714 240.535L74.1291 242.554C71.2729 243.832 67.9972 245.55 65.151 246.951C55.0942 230.251 49.0339 217.014 45.911 197.364C45.153 192.595 44.9592 187.752 44.377 182.933Z" fill="#1B3558"/>
<path d="M274.358 111.678C275.724 113.052 278.815 118.895 279.781 120.832C288.318 137.938 291.71 153.446 293.085 172.34C290.145 172.211 287.569 172.324 284.627 172.441L278.998 172.478C278.462 169.493 278.35 166.186 277.941 163.137C277.037 156.643 275.61 150.232 273.676 143.966C266.778 121.946 262.015 132.1 274.358 111.678Z" fill="#05AB99"/>
<path d="M174.135 52.6221C185.005 52.8241 200.115 55.7859 210.091 59.8726C208.198 63.1495 206.895 65.3689 205.442 68.9092C205.155 69.7841 204.327 71.5024 203.918 72.4157C193.129 68.9618 185.193 67.5262 173.962 66.8982C173.938 62.1386 173.996 57.3795 174.135 52.6221Z" fill="#05AB99"/>
</svg>
